<svg version="1.1" xmlns="http://www.w3.org/2000/svg" viewBox="0 0 796.4256925258749 383.5339532442768" width="1592.8513850517497" height="767.0679064885536">
  <!-- svg-source:excalidraw -->
  
  <defs>
    <style class="style-fonts">
      @font-face {
        font-family: "Virgil";
        src: url("https://excalidraw.com/Virgil.woff2");
      }
      @font-face {
        font-family: "Cascadia";
        src: url("https://excalidraw.com/Cascadia.woff2");
      }
    </style>
  </defs>
  <rect x="0" y="0" width="796.4256925258749" height="383.5339532442768" fill="#ffffff"></rect><g transform="translate(287.368410326475 33.391093616680735) rotate(0 122.07989501953125 12.5)"><text x="0" y="0" font-family="Virgil, Segoe UI Emoji" font-size="20px" fill="#c92a2a" text-anchor="start" style="white-space: pre;" direction="ltr" dominant-baseline="text-before-edge">Build Redis from scratch</text></g><g stroke-linecap="round" transform="translate(550.9599924941333 44.278618574333905) rotate(0 31.834911531408807 13.099532974646678)"><path d="M33.77 0.24 L61.76 13.12 L30.95 27.7 L-0.64 12.17" stroke="none" stroke-width="0" fill="#c6302b" fill-rule="evenodd"></path><path d="M33.65 0.02 C40.01 4.01, 47.94 7.67, 61.71 15.07 M31.12 0.69 C43.76 4.91, 56.52 9.68, 62.67 13.78 M63.47 15.06 C58.35 15.64, 48.87 20.71, 30.69 25.55 M63.69 14.39 C55.53 17.37, 48.01 20.25, 32.56 26.75 M31.27 25.32 C20.3 21.68, 9.33 17.65, 1.1 15.74 M32.84 26.03 C20.98 23.02, 8.78 18.47, 0.85 13.23 M1.08 15.35 C6.62 11, 14.82 5.65, 31.49 0.61 M0.76 13.9 C12.75 9.46, 23.42 4.08, 31.37 -0.3" stroke="#000000" stroke-width="1" fill="none"></path></g><g stroke-linecap="round"><g transform="translate(550.5639601018763 57.23344740565602) rotate(0 31.709401160413222 8.755282302610766)" fill-rule="evenodd"><path d="M-1.16 0.03 L2.11 3.82 L33.28 17.71 L62.76 5.83 L64.68 2.19 L61.33 -1.78 L31.68 12.13 L-0.29 0.18" stroke="none" stroke-width="0" fill="#912626" fill-rule="evenodd"></path><path d="M0.99 0.01 C0.95 0.32, 0.29 2.05, 0.52 2.95 C0.76 3.85, 0.41 4.14, 2.38 5.39 C4.36 6.65, 8.12 8.69, 12.35 10.49 C16.58 12.28, 24.38 15.15, 27.78 16.15 C31.17 17.15, 31.05 16.53, 32.73 16.49 C34.42 16.45, 34.93 16.74, 37.9 15.9 C40.86 15.06, 46.62 13.51, 50.52 11.45 C54.42 9.39, 59.2 5.22, 61.31 3.53 C63.42 1.83, 62.95 1.92, 63.16 1.29 C63.37 0.67, 63.5 -0.55, 62.58 -0.24 C61.65 0.08, 62.06 1.26, 57.61 3.19 C53.17 5.12, 40.89 9.78, 35.92 11.36 C30.94 12.94, 33.88 14.63, 27.76 12.68 C21.64 10.72, 3.95 1.73, -0.78 -0.39 M0.05 -1.03 C-0.17 -0.55, -0.5 0.43, -0.15 1.2 C0.21 1.97, 0.15 2.42, 2.17 3.6 C4.2 4.77, 7.88 6.08, 11.98 8.27 C16.08 10.45, 23.62 14.99, 26.75 16.71 C29.88 18.42, 29.31 18.91, 30.74 18.55 C32.17 18.19, 32.21 15.68, 35.31 14.54 C38.42 13.4, 44.79 13.28, 49.39 11.72 C53.99 10.16, 60.53 6.48, 62.93 5.18 C65.33 3.87, 63.82 4.67, 63.79 3.9 C63.75 3.13, 63.99 0.68, 62.71 0.55 C61.44 0.42, 60.5 1.48, 56.14 3.1 C51.77 4.72, 40.86 8.63, 36.53 10.29 C32.19 11.95, 36.38 14.96, 30.15 13.06 C23.92 11.15, 4.14 0.83, -0.87 -1.15" stroke="#000000" stroke-width="1" fill="none"></path></g></g><mask></mask><g stroke-linecap="round"><g transform="translate(550.4649520038122 47.431645697301235) rotate(0 30.78233391318804 8.439779963604764)" fill-rule="evenodd"><path d="M0.03 0.79 L0.79 5.39 L32.41 18.3 L63.13 5.81 L64.78 -0.61 L61.02 -0.6 L31.54 12.71 L0.18 0.26" stroke="none" stroke-width="0" fill="#912626" fill-rule="evenodd"></path><path d="M0.01 0.52 C-0.06 0.91, 0.32 2.86, 0.71 3.3 C1.1 3.74, 0.12 1.94, 2.36 3.18 C4.61 4.41, 10.03 8.51, 14.17 10.7 C18.32 12.89, 24.41 15.03, 27.24 16.31 C30.08 17.59, 29.55 18.47, 31.19 18.37 C32.82 18.28, 33.58 17.22, 37.03 15.75 C40.48 14.28, 47.92 11.45, 51.88 9.57 C55.85 7.69, 59.09 5.71, 60.82 4.46 C62.55 3.21, 61.98 2.82, 62.27 2.08 C62.56 1.34, 63.21 -0.18, 62.56 0.02 C61.91 0.22, 63 1.49, 58.36 3.28 C53.73 5.06, 39.48 9.48, 34.74 10.73 C30.01 11.98, 35.79 12.69, 29.93 10.8 C24.08 8.91, 4.61 1.3, -0.39 -0.62 M-1.44 -0.25 C-1.7 -0.26, -0.46 1.05, 0.14 1.73 C0.73 2.42, -0.29 2.73, 2.14 3.88 C4.58 5.02, 10.79 6.41, 14.76 8.59 C18.72 10.77, 23.06 15.43, 25.94 16.96 C28.82 18.49, 30.09 18.21, 32.04 17.77 C33.99 17.32, 34.42 15.79, 37.66 14.3 C40.9 12.82, 47.39 10.76, 51.47 8.86 C55.56 6.97, 60.35 4.17, 62.18 2.94 C64.01 1.7, 62.36 1.78, 62.44 1.45 C62.53 1.11, 63.54 0.65, 62.68 0.94 C61.82 1.24, 61.94 1.22, 57.28 3.23 C52.62 5.24, 39.31 11.84, 34.73 13 C30.15 14.16, 35.64 12.61, 29.8 10.2 C23.97 7.78, 4.54 0.17, -0.27 -1.5" stroke="#000000" stroke-width="1" fill="none"></path></g></g><mask></mask><g stroke-linecap="round" transform="translate(550.5639601018765 34.17979257178655) rotate(0 31.834911531408807 13.099532974646706)"><path d="M31.12 -1.05 L65.18 13.36 L30.17 27.19 L0.29 13.07" stroke="none" stroke-width="0" fill="#c6302b" fill-rule="evenodd"></path><path d="M33.18 1.77 C45.85 3.25, 57.31 11.99, 64.2 14.81 M31.84 0.98 C38.21 1.98, 45.28 4.98, 63.38 13.69 M62.91 12.2 C56.36 16.42, 44.7 20.24, 31.92 25.04 M64.19 14.08 C54.54 18.15, 45.16 21.87, 31.2 25.24 M32.18 26.46 C24.15 24.04, 16.94 20.93, -1.46 15.43 M32.99 25.94 C20.57 22.5, 6.68 16.55, 0.82 14.97 M0.92 12.4 C10.42 8.78, 23.17 5.82, 30.42 0.45 M0.77 13.34 C12.67 7.9, 23.75 4.16, 32.12 -0.95" stroke="#000000" stroke-width="1" fill="none"></path></g><g stroke-linecap="round" transform="translate(550.1593095958208 23.769511944964336) rotate(0 31.834911531408807 13.099532974646706)"><path d="M30.95 1.51 L63.03 12.17 L32.99 26.49 L-0.93 12.53" stroke="none" stroke-width="0" fill="#c6302b" fill-rule="evenodd"></path><path d="M33.77 1.73 C39.62 5.1, 52.53 8.77, 64.48 12.23 M32.98 -0.59 C42.68 5, 54.4 10.08, 63.36 13.9 M61.87 15.82 C51.26 17.53, 40.37 22.41, 30.84 26.23 M63.75 14.37 C53.45 18.85, 42.75 21.64, 31.04 25.83 M32.26 26.73 C24.92 24.84, 16.82 18.51, 1.43 15.68 M31.74 27.03 C23.73 22.29, 13.39 20.42, 0.97 14.54 M-1.6 13.19 C11.36 9.32, 25.12 1.98, 32.45 1.51 M-0.66 14.64 C8.57 9.39, 19.37 5.75, 31.05 -0.44" stroke="#000000" stroke-width="1" fill="none"></path></g><g stroke-linecap="round"><g transform="translate(550.0603014977564 37.02136507047902) rotate(0 31.764412448392477 9.103927525797616)" fill-rule="evenodd"><path d="M1.04 0.17 L2.07 5.47 L33.34 18.74 L60.41 2.81 L62.86 0.12 L62.64 0.32 L32.68 13.53 L1.1 1.74" stroke="none" stroke-width="0" fill="#912626" fill-rule="evenodd"></path><path d="M1.06 1.04 C0.78 1.4, -1.37 2.28, -1.18 2.88 C-0.99 3.49, -0.35 3.69, 2.18 4.68 C4.71 5.66, 9.76 6.93, 14.02 8.78 C18.28 10.64, 24.74 14.13, 27.75 15.79 C30.76 17.45, 30.62 18.9, 32.06 18.72 C33.49 18.55, 33.3 16.34, 36.37 14.74 C39.43 13.15, 46.23 10.86, 50.45 9.13 C54.66 7.4, 59.52 5.36, 61.66 4.35 C63.8 3.34, 62.97 3.85, 63.3 3.07 C63.63 2.29, 64.76 -0.42, 63.65 -0.32 C62.54 -0.22, 61.52 1.69, 56.65 3.65 C51.78 5.61, 39.15 10.11, 34.42 11.42 C29.68 12.74, 34.08 13.44, 28.22 11.54 C22.37 9.64, 3.93 2, -0.69 0.02 M0.16 0.54 C0.18 0.49, 0.63 0.16, 0.91 1.1 C1.2 2.03, -0.41 4.79, 1.86 6.16 C4.13 7.54, 10.38 7.66, 14.52 9.33 C18.66 11, 23.57 14.67, 26.71 16.16 C29.85 17.65, 31.71 18.25, 33.37 18.3 C35.02 18.34, 33.99 17.51, 36.64 16.43 C39.29 15.36, 44.81 13.52, 49.28 11.85 C53.75 10.18, 61.01 7.91, 63.46 6.43 C65.92 4.95, 63.86 3.95, 64.01 2.95 C64.15 1.95, 65.29 0.28, 64.35 0.43 C63.4 0.57, 63.35 2.14, 58.33 3.8 C53.31 5.46, 39.42 9.14, 34.23 10.39 C29.05 11.65, 33.02 13.14, 27.19 11.32 C21.37 9.5, 3.51 1.23, -0.73 -0.53" stroke="#000000" stroke-width="1" fill="none"></path></g></g><mask></mask><g stroke-linecap="round" transform="translate(561.5530690914825 33.709557158665746) rotate(0 6.8723268068084735 3.0284829996105316)"><path d="M5.99 0.74 C7.07 0.49, 8.26 0.69, 9.34 0.82 C10.42 0.94, 11.81 0.92, 12.45 1.49 C13.08 2.07, 13.35 3.72, 13.15 4.27 C12.95 4.83, 12.42 4.39, 11.25 4.81 C10.08 5.23, 7.73 6.63, 6.13 6.78 C4.54 6.93, 2.56 6.43, 1.66 5.71 C0.77 4.99, 0.7 3.34, 0.77 2.47 C0.85 1.61, 1.29 0.79, 2.1 0.53 C2.91 0.27, 4.89 1.15, 5.62 0.91 C6.36 0.68, 6.54 -0.7, 6.53 -0.89 M10.14 0.43 C11.44 0.66, 11.49 0.17, 12.22 0.49 C12.95 0.8, 14.91 1.68, 14.52 2.33 C14.13 2.97, 11.27 3.77, 9.9 4.33 C8.53 4.89, 7.72 5.39, 6.31 5.69 C4.9 5.99, 2.68 6.67, 1.42 6.13 C0.17 5.58, -0.98 3.02, -1.21 2.41 C-1.43 1.81, -0.74 2.82, 0.06 2.5 C0.87 2.19, 1.98 0.99, 3.64 0.51 C5.31 0.02, 9.1 -0.44, 10.05 -0.41 C11 -0.38, 9.4 0.74, 9.33 0.7" stroke="none" stroke-width="0" fill="#ffff"></path><path d="M9.1 -0.78 C10.47 -0.7, 12.47 0.43, 13.21 1.28 C13.96 2.12, 13.91 3.8, 13.56 4.29 C13.21 4.77, 12.17 4.05, 11.12 4.19 C10.06 4.32, 8.63 4.93, 7.21 5.09 C5.79 5.26, 3.78 5.32, 2.6 5.19 C1.42 5.06, 0.35 4.96, 0.13 4.32 C-0.1 3.68, 0.76 1.87, 1.26 1.35 C1.76 0.83, 1.93 1.44, 3.1 1.19 C4.28 0.93, 7.37 -0.02, 8.28 -0.18 C9.2 -0.35, 8.64 0.09, 8.62 0.19 M8.34 0.62 C9.93 0.71, 12.02 1.74, 13.07 1.95 C14.12 2.16, 15.05 1.47, 14.64 1.89 C14.23 2.31, 11.83 3.82, 10.6 4.48 C9.38 5.13, 8.46 5.58, 7.26 5.8 C6.07 6.03, 4.53 5.98, 3.44 5.81 C2.36 5.65, 1.04 5.33, 0.76 4.83 C0.48 4.33, 1.49 3.4, 1.77 2.83 C2.06 2.27, 1.18 1.95, 2.47 1.44 C3.75 0.94, 8.41 -0.22, 9.47 -0.19 C10.53 -0.16, 9.11 1.3, 8.82 1.6" stroke="#000000" stroke-width="1" fill="none"></path></g><g stroke-linecap="round"><g transform="translate(574.2610496783095 42.892974364848556) rotate(0 6.238319931701767 0.12062168329450174)" fill-rule="evenodd"><path d="M-1.83 0.99 L9.11 2.02 L10.41 -1.43 L-1.75 -1.66" stroke="none" stroke-width="0" fill="#ffff" fill-rule="evenodd"></path><path d="M0.5 0.66 C3.7 1.61, 6.06 3.02, 8.8 2.8 M-0.1 -0.44 C3.36 1.12, 6.96 2.68, 9.1 2.77 M8.62 2.62 C9.39 1.43, 10.07 0.87, 11.71 -2.31 M9 3.14 C9.49 0.9, 10.57 -0.66, 11.84 -2.61 M12.94 -1.91 C7.28 -0.88, 5.47 -1.12, 0.51 1.2 M11.42 -2.9 C9.15 -1.23, 5.73 -0.68, -0.47 0.28 M0 0 C0 0, 0 0, 0 0 M0 0 C0 0, 0 0, 0 0" stroke="#000000" stroke-width="1" fill="none"></path></g></g><mask></mask><g stroke-linecap="round"><g transform="translate(578.6174059931338 27.76907127481428) rotate(0 3.6723437466257565 3.2955067774683755)" fill-rule="evenodd"><path d="M-0.49 0.48 L0.73 3.44 L-3.43 5.6 L-0.04 6.34 L3.07 7.24 L5.45 3.08 L9.68 4.04 L3.47 0.44 L5.04 -1.48 L2.12 0.68 L-1.56 0.57" stroke="none" stroke-width="0" fill="#ffff" fill-rule="evenodd"></path><path d="M0.19 0.07 C0.51 0.69, 1.01 1.85, 1.05 2.68 M-0.13 -0.04 C0.2 0.57, 0.57 1.25, 1.04 2.3 M0.9 2.4 C-0.39 3.15, -1.28 3.78, -1.92 4.33 M1.21 2.27 C-0.16 3, -1.14 3.68, -2.1 4.33 M-1.88 4.02 C-0.56 4.72, 0.37 4.68, 2.18 4.57 M-2.2 4.46 C-0.42 4.58, 1.02 4.47, 1.88 4.52 M2.04 4.41 C2.43 5.59, 2.89 6.22, 4.24 7.01 M1.94 4.7 C2.41 5.54, 3.28 6.67, 3.93 7.08 M3.76 7.42 C3.91 5.93, 4.16 5.06, 4.48 4.05 M3.89 7.34 C4.1 6.21, 4.48 5.04, 4.55 4.27 M4.74 4.66 C6.15 4.25, 8.04 3.99, 9.54 3.71 M4.72 4.33 C6.46 4.26, 7.82 3.86, 9.3 3.35 M9.08 3.94 C7.4 2.66, 6.56 2.5, 5.15 2.01 M9.4 3.42 C8.2 3.4, 7.28 3.08, 5.3 2.36 M5.45 2.21 C5.67 1.58, 5.56 0.97, 6.53 -0.83 M5.16 2.38 C5.76 1.41, 6.25 0.21, 6.59 -0.47 M6.58 -0.71 C5.62 -0.3, 5.21 0.13, 3.18 1.34 M6.42 -0.6 C5.79 -0.15, 5.02 0.02, 3.05 0.9 M2.88 1.17 C2.23 1.05, 1.4 0.28, -0.26 0.23 M2.94 0.94 C1.85 0.77, 0.91 0.33, -0.05 0.09 M0 0 C0 0, 0 0, 0 0 M0 0 C0 0, 0 0, 0 0" stroke="#000000" stroke-width="1" fill="none"></path></g></g><mask></mask><g stroke-linecap="round"><g transform="translate(596.6565918603408 33.461364912839656) rotate(0 0.07521651407080299 3.183413794336502)" fill-rule="evenodd"><path d="M-1.81 -1.48 L6.09 4.84 L-2.09 4.28 L-5.77 2.87 L-0.49 -1.21 L-0.95 -1.56" stroke="none" stroke-width="0" fill="#912626" fill-rule="evenodd"></path><path d="M0.21 0.32 C0.81 1.1, 2.99 1.02, 8.21 2.5 M-0.12 -0.12 C1.44 0.88, 3.21 1.11, 7.07 3.33 M7.39 2.49 C5.62 3.95, 3.57 4.75, -0.23 6.25 M7.09 2.57 C4.54 3.89, 1.89 5.17, -0.24 6.05 M-0.86 6.49 C-2.21 4.8, -5.06 4.64, -7.63 3.61 M0.02 6.31 C-2.81 5.03, -6.06 3.8, -7.73 2.81 M-8.06 3.15 C-4.79 2.02, -2.83 1.9, -0.53 0.51 M-7.38 2.59 C-5.83 1.99, -3.6 1.37, -0.36 0.2 M0 0 C0 0, 0 0, 0 0 M0 0 C0 0, 0 0, 0 0 M0 0 C0 0, 0 0, 0 0 M0 0 C0 0, 0 0, 0 0" stroke="#000000" stroke-width="1" fill="none"></path></g></g><mask></mask><g stroke-linecap="round"><g transform="translate(595.892908203353 33.28206910952218) rotate(0 0.1135275355200065 2.610598842918364)"><path d="M0.24 -0.53 C0.51 2.08, 0.06 4.78, -0.2 5.35 M-0.09 -0.03 C0.14 1.83, -0.08 3.04, 0.42 5.75" stroke="#000000" stroke-width="1" fill="none"></path></g></g><mask></mask><g stroke-linecap="round"><g transform="translate(268.77696497681677 57.09912765167667) rotate(0 -21.98268821354543 -12.429665180501672)" fill-rule="evenodd"><path d="M0 0 L-0.87 7.83 L-4.33 15.39 L-11.15 20.14 L-21.15 22.12 L-31.74 21.5 L-36.25 20 L-39.93 17.22 L-42.47 13.43 L-43.95 6.44 L-44.24 -16.54 L-43.74 -23.44 L-41.24 -32.87 L-37.37 -41.03 L-38.85 -44.61 L-38.26 -46.18 L-35.6 -47.01 L-32.27 -44.07 L-20.66 -46.29 L-11.34 -44.99 L-6.95 -43.57 L-4.52 -46.03 L-1.91 -45.96 L-1.16 -44.86 L-1.31 -43.14 L-2.9 -40.43 L-1.13 -36.14 L0.42 -23.29 L0 0" stroke="none" stroke-width="0" fill="#d0bea7" fill-rule="evenodd"></path><path d="M0 0 C-0.15 1.31, -0.15 5.27, -0.87 7.83 C-1.6 10.4, -2.61 13.34, -4.33 15.39 C-6.04 17.44, -8.34 19.02, -11.15 20.14 C-13.95 21.26, -17.72 21.89, -21.15 22.12 C-24.58 22.34, -28.61 22.32, -31.74 21.5 C-34.87 20.69, -37.89 19.73, -39.93 17.22 C-41.96 14.71, -43.32 13.21, -43.95 6.44 C-44.59 -0.34, -44.63 -15.9, -43.74 -23.44 C-42.85 -30.98, -39.67 -35.92, -38.62 -38.82 C-37.57 -41.72, -37.65 -40.47, -37.44 -40.83 C-37.23 -41.2, -37.21 -40.69, -37.37 -41.03 C-37.53 -41.36, -38.14 -42.23, -38.39 -42.83 C-38.63 -43.42, -38.87 -44.05, -38.85 -44.61 C-38.83 -45.17, -38.58 -45.78, -38.26 -46.18 C-37.94 -46.58, -37.39 -46.86, -36.95 -47 C-36.5 -47.14, -36.01 -47.12, -35.6 -47.01 C-35.2 -46.9, -34.89 -46.66, -34.51 -46.32 C-34.13 -45.98, -33.7 -45.34, -33.33 -44.96 C-32.95 -44.59, -32.59 -44.14, -32.27 -44.07 C-31.95 -43.99, -33.33 -44.15, -31.39 -44.52 C-29.46 -44.89, -24 -46.22, -20.66 -46.29 C-17.32 -46.37, -13.55 -45.44, -11.34 -44.99 C-9.13 -44.55, -8.14 -43.87, -7.41 -43.63 C-6.68 -43.39, -7.25 -43.32, -6.95 -43.57 C-6.66 -43.83, -6.04 -44.75, -5.63 -45.16 C-5.22 -45.57, -4.9 -45.83, -4.52 -46.03 C-4.13 -46.24, -3.77 -46.41, -3.34 -46.4 C-2.9 -46.38, -2.27 -46.22, -1.91 -45.96 C-1.55 -45.71, -1.26 -45.33, -1.16 -44.86 C-1.06 -44.39, -1.02 -43.88, -1.31 -43.14 C-1.6 -42.4, -2.69 -40.97, -2.9 -40.43 C-3.1 -39.89, -2.84 -40.61, -2.55 -39.9 C-2.25 -39.18, -1.63 -38.91, -1.13 -36.14 C-0.64 -33.37, 0.23 -29.32, 0.42 -23.29 C0.61 -17.27, 0.07 -3.88, 0 0 M0 0 C-0.15 1.31, -0.15 5.27, -0.87 7.83 C-1.6 10.4, -2.61 13.34, -4.33 15.39 C-6.04 17.44, -8.34 19.02, -11.15 20.14 C-13.95 21.26, -17.72 21.89, -21.15 22.12 C-24.58 22.34, -28.61 22.32, -31.74 21.5 C-34.87 20.69, -37.89 19.73, -39.93 17.22 C-41.96 14.71, -43.32 13.21, -43.95 6.44 C-44.59 -0.34, -44.63 -15.9, -43.74 -23.44 C-42.85 -30.98, -39.67 -35.92, -38.62 -38.82 C-37.57 -41.72, -37.65 -40.47, -37.44 -40.83 C-37.23 -41.2, -37.21 -40.69, -37.37 -41.03 C-37.53 -41.36, -38.14 -42.23, -38.39 -42.83 C-38.63 -43.42, -38.87 -44.05, -38.85 -44.61 C-38.83 -45.17, -38.58 -45.78, -38.26 -46.18 C-37.94 -46.58, -37.39 -46.86, -36.95 -47 C-36.5 -47.14, -36.01 -47.12, -35.6 -47.01 C-35.2 -46.9, -34.89 -46.66, -34.51 -46.32 C-34.13 -45.98, -33.7 -45.34, -33.33 -44.96 C-32.95 -44.59, -32.59 -44.14, -32.27 -44.07 C-31.95 -43.99, -33.33 -44.15, -31.39 -44.52 C-29.46 -44.89, -24 -46.22, -20.66 -46.29 C-17.32 -46.37, -13.55 -45.44, -11.34 -44.99 C-9.13 -44.55, -8.14 -43.87, -7.41 -43.63 C-6.68 -43.39, -7.25 -43.32, -6.95 -43.57 C-6.66 -43.83, -6.04 -44.75, -5.63 -45.16 C-5.22 -45.57, -4.9 -45.83, -4.52 -46.03 C-4.13 -46.24, -3.77 -46.41, -3.34 -46.4 C-2.9 -46.38, -2.27 -46.22, -1.91 -45.96 C-1.55 -45.71, -1.26 -45.33, -1.16 -44.86 C-1.06 -44.39, -1.02 -43.88, -1.31 -43.14 C-1.6 -42.4, -2.69 -40.97, -2.9 -40.43 C-3.1 -39.89, -2.84 -40.61, -2.55 -39.9 C-2.25 -39.18, -1.63 -38.91, -1.13 -36.14 C-0.64 -33.37, 0.23 -29.32, 0.42 -23.29 C0.61 -17.27, 0.07 -3.88, 0 0" stroke="#000000" stroke-width="2" fill="none"></path></g></g><mask></mask><g stroke-linecap="round"><g transform="translate(268.77696497681677 57.14015025688781) rotate(0 -21.98268821354543 -12.078012502455522)"><path d="M0 0 C-0.15 1.31, -0.15 5.27, -0.87 7.83 C-1.6 10.4, -2.61 13.34, -4.33 15.39 C-6.04 17.44, -8.34 19.02, -11.15 20.14 C-13.95 21.26, -17.72 21.89, -21.15 22.12 C-24.58 22.34, -28.61 22.32, -31.74 21.5 C-34.87 20.69, -37.89 19.73, -39.93 17.22 C-41.96 14.71, -43.32 13.21, -43.95 6.44 C-44.59 -0.34, -44.63 -15.9, -43.74 -23.44 C-42.85 -30.98, -40.65 -35.32, -38.62 -38.82 C-36.6 -42.32, -34.6 -43.18, -31.61 -44.43 C-28.61 -45.67, -24.04 -46.2, -20.66 -46.29 C-17.28 -46.39, -13.55 -45.44, -11.34 -44.99 C-9.13 -44.55, -8.14 -43.87, -7.41 -43.63 C-6.68 -43.39, -7.25 -43.32, -6.95 -43.57 C-6.66 -43.83, -6.04 -44.75, -5.63 -45.16 C-5.22 -45.57, -4.9 -45.83, -4.52 -46.03 C-4.13 -46.24, -3.77 -46.41, -3.34 -46.4 C-2.9 -46.38, -2.27 -46.22, -1.91 -45.96 C-1.55 -45.71, -1.26 -45.33, -1.16 -44.86 C-1.06 -44.39, -1.02 -43.88, -1.31 -43.14 C-1.6 -42.4, -2.69 -40.97, -2.9 -40.43 C-3.1 -39.89, -2.84 -40.61, -2.55 -39.9 C-2.25 -39.18, -1.63 -38.91, -1.13 -36.14 C-0.64 -33.37, 0.23 -29.32, 0.42 -23.29 C0.61 -17.27, 0.07 -3.88, 0 0 M0 0 C-0.15 1.31, -0.15 5.27, -0.87 7.83 C-1.6 10.4, -2.61 13.34, -4.33 15.39 C-6.04 17.44, -8.34 19.02, -11.15 20.14 C-13.95 21.26, -17.72 21.89, -21.15 22.12 C-24.58 22.34, -28.61 22.32, -31.74 21.5 C-34.87 20.69, -37.89 19.73, -39.93 17.22 C-41.96 14.71, -43.32 13.21, -43.95 6.44 C-44.59 -0.34, -44.63 -15.9, -43.74 -23.44 C-42.85 -30.98, -40.65 -35.32, -38.62 -38.82 C-36.6 -42.32, -34.6 -43.18, -31.61 -44.43 C-28.61 -45.67, -24.04 -46.2, -20.66 -46.29 C-17.28 -46.39, -13.55 -45.44, -11.34 -44.99 C-9.13 -44.55, -8.14 -43.87, -7.41 -43.63 C-6.68 -43.39, -7.25 -43.32, -6.95 -43.57 C-6.66 -43.83, -6.04 -44.75, -5.63 -45.16 C-5.22 -45.57, -4.9 -45.83, -4.52 -46.03 C-4.13 -46.24, -3.77 -46.41, -3.34 -46.4 C-2.9 -46.38, -2.27 -46.22, -1.91 -45.96 C-1.55 -45.71, -1.26 -45.33, -1.16 -44.86 C-1.06 -44.39, -1.02 -43.88, -1.31 -43.14 C-1.6 -42.4, -2.69 -40.97, -2.9 -40.43 C-3.1 -39.89, -2.84 -40.61, -2.55 -39.9 C-2.25 -39.18, -1.63 -38.91, -1.13 -36.14 C-0.64 -33.37, 0.23 -29.32, 0.42 -23.29 C0.61 -17.27, 0.07 -3.88, 0 0" stroke="#000000" stroke-width="2" fill="none"></path></g></g><mask></mask><g stroke-linecap="round"><g transform="translate(260.15629655118164 13.03615102273966) rotate(0 3.150175820668778 2.1675521701849334)" fill-rule="evenodd"><path d="" stroke="none" stroke-width="0" fill="#ffffff" fill-rule="evenodd"></path><path d="M0 0 C0.51 0.27, 2.09 1.02, 3.03 1.62 C3.98 2.22, 5.12 3.13, 5.66 3.58 C6.21 4.04, 6.19 4.21, 6.3 4.34 M0 0 C0.51 0.27, 2.09 1.02, 3.03 1.62 C3.98 2.22, 5.12 3.13, 5.66 3.58 C6.21 4.04, 6.19 4.21, 6.3 4.34" stroke="#000000" stroke-width="2" fill="none"></path></g></g><mask></mask><g stroke-linecap="round"><g transform="translate(263.90637991510107 15.001599813576092) rotate(0 0.48399690356950487 -1.2319921181768336)" fill-rule="evenodd"><path d="" stroke="none" stroke-width="0" fill="#ffffff" fill-rule="evenodd"></path><path d="M0 0 C0.09 -0.19, 0.37 -0.73, 0.53 -1.14 C0.69 -1.55, 0.89 -2.24, 0.97 -2.46 M0 0 C0.09 -0.19, 0.37 -0.73, 0.53 -1.14 C0.69 -1.55, 0.89 -2.24, 0.97 -2.46" stroke="#000000" stroke-width="2" fill="none"></path></g></g><mask></mask><g stroke-linecap="round"><g transform="translate(266.16350795098333 13.776223067578428) rotate(0 -1.1350223149873955 0.5587802166091649)" fill-rule="evenodd"><path d="" stroke="none" stroke-width="0" fill="#ffffff" fill-rule="evenodd"></path><path d="M0 0 C-0.19 0.05, -0.74 0.09, -1.12 0.28 C-1.5 0.47, -2.08 0.98, -2.27 1.12 M0 0 C-0.19 0.05, -0.74 0.09, -1.12 0.28 C-1.5 0.47, -2.08 0.98, -2.27 1.12" stroke="#000000" stroke-width="2" fill="none"></path></g></g><mask></mask><g stroke-opacity="0.5" fill-opacity="0.5" stroke-linecap="round" transform="translate(230.59189082650505 51.69111590611527) rotate(0 15.492964610281206 12.595481607478519)"><path d="M11.88 1.21 C14.89 0.27, 19.96 0.15, 22.85 1.49 C25.74 2.83, 27.69 6.92, 29.2 9.25 C30.71 11.59, 32.63 12.97, 31.92 15.49 C31.2 18.01, 27.87 22.62, 24.92 24.37 C21.97 26.13, 17.77 26.6, 14.22 26 C10.68 25.39, 6.08 22.66, 3.64 20.74 C1.19 18.83, -0.52 17.19, -0.43 14.5 C-0.35 11.81, 0.9 6.87, 4.13 4.61 C7.36 2.36, 16.03 1.13, 18.95 0.97 C21.86 0.8, 21.88 3.79, 21.62 3.62 M20.37 -1.46 C23.69 -1.19, 29.48 1.59, 30.82 4.33 C32.15 7.07, 28.9 11.91, 28.36 14.98 C27.81 18.06, 29.68 21.49, 27.57 22.77 C25.46 24.04, 19.66 22.33, 15.71 22.64 C11.75 22.96, 6.62 25.55, 3.84 24.64 C1.07 23.73, -0.38 20.1, -0.92 17.2 C-1.46 14.31, -1.02 10.25, 0.62 7.28 C2.25 4.32, 5.95 0.87, 8.88 -0.59 C11.82 -2.05, 16.27 -1.96, 18.21 -1.49 C20.14 -1.03, 20.39 1.85, 20.5 2.19" stroke="none" stroke-width="0" fill="#ffffff"></path><path d="M4.77 3 C6.51 1.14, 10.23 1.15, 13.08 1.15 C15.94 1.14, 19.15 1.7, 21.87 2.96 C24.59 4.23, 28.09 6.23, 29.42 8.71 C30.75 11.2, 31.12 15.76, 29.86 17.88 C28.6 20, 24.87 19.98, 21.88 21.43 C18.88 22.88, 14.91 26.62, 11.9 26.57 C8.9 26.52, 5.84 23.42, 3.85 21.13 C1.86 18.84, -0.77 16.47, -0.05 12.84 C0.66 9.21, 5.14 1.3, 8.14 -0.64 C11.14 -2.57, 17.82 0.47, 17.95 1.22 M23.72 2.41 C26.13 4.26, 29 7.71, 29.88 10.84 C30.76 13.96, 30.69 19.2, 29.01 21.16 C27.33 23.11, 23.23 21.65, 19.81 22.57 C16.39 23.49, 11.89 27.2, 8.49 26.65 C5.09 26.1, 0.32 21.48, -0.61 19.26 C-1.54 17.03, 1.46 15.8, 2.91 13.29 C4.36 10.78, 5.83 5.94, 8.07 4.19 C10.3 2.43, 13.83 3.08, 16.31 2.75 C18.8 2.41, 21.69 1.82, 22.98 2.19 C24.27 2.56, 24.17 5.16, 24.05 4.97" stroke="#000000" stroke-width="2" fill="none"></path></g><g stroke-linecap="round"><g transform="translate(232.1976485812611 14.794801262971589) rotate(294.1768782491122 0.27964874826227515 -1.2417888499271612)" fill-rule="evenodd"><path d="" stroke="none" stroke-width="0" fill="#ffffff" fill-rule="evenodd"></path><path d="M0 0 C0.09 -0.19, 0.44 -0.73, 0.53 -1.14 C0.61 -1.56, 0.5 -2.26, 0.5 -2.48 M0 0 C0.09 -0.19, 0.44 -0.73, 0.53 -1.14 C0.61 -1.56, 0.5 -2.26, 0.5 -2.48" stroke="#000000" stroke-width="2" fill="none"></path></g></g><mask></mask><g stroke-linecap="round"><g transform="translate(233.90958524140706 12.371089253099512) rotate(294.1768782491122 -0.8779438148021654 0.7891249222476233)" fill-rule="evenodd"><path d="" stroke="none" stroke-width="0" fill="#ffffff" fill-rule="evenodd"></path><path d="M0 0 C-0.1 0.12, -0.31 0.48, -0.6 0.74 C-0.9 1, -1.56 1.44, -1.76 1.58 M0 0 C-0.1 0.12, -0.31 0.48, -0.6 0.74 C-0.9 1, -1.56 1.44, -1.76 1.58" stroke="#000000" stroke-width="2" fill="none"></path></g></g><mask></mask><g stroke-linecap="round" transform="translate(252.3408294711062 17.91964378008845) rotate(0 9.247993481907201 9.339106718182165)"><path d="M7.61 -0.25 C9.46 -0.52, 12.84 0.97, 14.46 2.16 C16.08 3.35, 16.67 5.07, 17.33 6.9 C17.99 8.74, 18.91 11.41, 18.41 13.15 C17.91 14.9, 16.14 16.51, 14.34 17.37 C12.53 18.23, 9.46 18.6, 7.57 18.31 C5.68 18.03, 4.27 17.08, 3 15.65 C1.74 14.22, 0.06 11.93, -0.02 9.76 C-0.09 7.58, 0.79 4.25, 2.57 2.59 C4.36 0.93, 9.25 0.08, 10.69 -0.2 C12.13 -0.48, 11.32 0.69, 11.19 0.92 M8.21 -1.22 C10.3 -1.39, 13.55 1.56, 15.29 3.01 C17.04 4.46, 18.54 5.84, 18.67 7.49 C18.8 9.13, 16.9 11.23, 16.07 12.89 C15.24 14.55, 15.14 16.67, 13.68 17.45 C12.23 18.22, 9.32 18.16, 7.32 17.52 C5.33 16.89, 3.02 15.45, 1.7 13.66 C0.38 11.86, -0.68 8.64, -0.61 6.75 C-0.55 4.87, 0.37 3.57, 2.09 2.36 C3.81 1.14, 8.66 -0.41, 9.72 -0.55 C10.78 -0.7, 8.39 1.41, 8.43 1.48" stroke="none" stroke-width="0" fill="#ffffff"></path><path d="M13.15 0.28 C15.23 0.77, 17.25 2.96, 18.18 4.76 C19.11 6.57, 19.17 9.26, 18.75 11.09 C18.33 12.92, 17.46 14.62, 15.67 15.75 C13.88 16.89, 9.99 17.84, 8.01 17.91 C6.03 17.98, 5.11 17.39, 3.8 16.17 C2.48 14.96, 0.53 12.68, 0.11 10.59 C-0.31 8.51, 0.36 5.32, 1.27 3.68 C2.19 2.03, 3.46 1.26, 5.6 0.73 C7.74 0.21, 12.5 0.22, 14.13 0.52 C15.76 0.83, 15.49 2.4, 15.36 2.56 M7.38 0.24 C9.42 -0.38, 13 -0.42, 14.58 0.29 C16.15 1.01, 16.05 2.84, 16.82 4.54 C17.59 6.24, 19.59 8.18, 19.19 10.5 C18.8 12.82, 16.07 16.87, 14.46 18.46 C12.86 20.05, 11.46 20.37, 9.56 20.03 C7.67 19.68, 4.47 18.26, 3.11 16.4 C1.75 14.54, 1.66 11.05, 1.39 8.88 C1.12 6.7, 0.38 4.96, 1.49 3.37 C2.59 1.78, 7.33 0.05, 8.03 -0.68 C8.73 -1.42, 5.79 -1.3, 5.7 -1.03" stroke="#000000" stroke-width="2" fill="none"></path></g><g stroke-linecap="round" transform="translate(224.36906593469735 17.991134207495634) rotate(0 9.247993481907201 9.339106718182165)"><path d="M11.12 0.85 C13.14 1.11, 16.29 1.65, 17.64 3.25 C18.99 4.86, 19.4 8.32, 19.21 10.5 C19.02 12.68, 17.99 14.98, 16.48 16.33 C14.97 17.67, 12.23 18.32, 10.12 18.58 C8.02 18.85, 5.41 19.04, 3.84 17.92 C2.26 16.81, 1.11 13.88, 0.68 11.87 C0.25 9.87, 0.61 7.6, 1.25 5.92 C1.88 4.24, 2.62 2.79, 4.48 1.79 C6.35 0.8, 10.86 -0.01, 12.45 -0.06 C14.04 -0.1, 14 1.25, 14.01 1.5 M4.8 0.82 C6.51 0.25, 11.23 0.47, 13.29 0.89 C15.35 1.31, 16.48 1.49, 17.17 3.34 C17.85 5.2, 17.82 9.65, 17.39 12.01 C16.97 14.38, 16.09 16.36, 14.63 17.53 C13.18 18.71, 10.62 19.34, 8.66 19.05 C6.7 18.77, 4.46 17.33, 2.85 15.81 C1.24 14.29, -0.72 11.68, -0.98 9.94 C-1.25 8.2, 0.19 7.03, 1.27 5.37 C2.34 3.7, 4.46 0.56, 5.47 -0.07 C6.49 -0.7, 7.42 1.31, 7.38 1.58" stroke="none" stroke-width="0" fill="#ffffff"></path><path d="M4.61 1.8 C6.12 0.83, 9.12 0.25, 11.09 0.69 C13.05 1.12, 15.34 3.05, 16.41 4.42 C17.48 5.78, 17.72 6.88, 17.53 8.88 C17.34 10.88, 16.48 14.8, 15.28 16.42 C14.07 18.05, 12.16 18.52, 10.32 18.63 C8.48 18.73, 5.98 18.28, 4.21 17.06 C2.44 15.84, 0.25 13.13, -0.29 11.31 C-0.82 9.49, -0.05 7.84, 1 6.16 C2.04 4.49, 4.64 2.22, 5.97 1.25 C7.3 0.28, 8.9 0.4, 8.97 0.33 M8.66 1.27 C10.49 0.84, 12.68 -0.2, 14.1 0.96 C15.53 2.12, 16.9 6.13, 17.22 8.24 C17.55 10.34, 16.57 11.75, 16.08 13.58 C15.59 15.41, 15.63 18.34, 14.29 19.21 C12.94 20.08, 10.04 19.37, 8.01 18.81 C5.98 18.25, 3.62 17.66, 2.12 15.85 C0.61 14.05, -1.09 10.03, -1.04 7.98 C-0.98 5.93, 0.97 5.11, 2.43 3.56 C3.89 2, 6.94 -0.84, 7.74 -1.35 C8.54 -1.87, 7.1 0.05, 7.22 0.45" stroke="#000000" stroke-width="2" fill="none"></path></g><g stroke-linecap="round"><g stroke-opacity="0.1" fill-opacity="0.1" transform="translate(265.6283020921426 35.58444917165974) rotate(0 -6.54246059033926 -7.985218685644725)" fill-rule="evenodd"><path d="M0 0 L-3.44 0.01 L-7.73 -1.56 L-10.97 -6.09 L-10.86 -9.86 L-9.31 -13.72 L-5.86 -16.5 L-2.91 -17.53 L-8.03 -16.7 L-12.5 -11.78 L-13.51 -5.51 L-12.91 -3.2 L-9.97 0.03 L-7.14 1.21 L-3.65 1.49 L0.44 0.04" stroke="none" stroke-width="0" fill="#000000" fill-rule="evenodd"></path><path d="M0 0 C-0.29 0.03, -1.14 0.2, -1.71 0.2 C-2.29 0.2, -2.78 0.13, -3.44 0.01 C-4.09 -0.11, -4.93 -0.28, -5.65 -0.54 C-6.37 -0.8, -7.11 -1.09, -7.73 -1.56 C-8.35 -2.03, -8.82 -2.58, -9.36 -3.34 C-9.9 -4.09, -10.72 -5.01, -10.97 -6.09 C-11.22 -7.18, -11.13 -8.59, -10.86 -9.86 C-10.58 -11.13, -10.14 -12.61, -9.31 -13.72 C-8.48 -14.82, -6.93 -15.86, -5.86 -16.5 C-4.79 -17.13, -2.55 -17.5, -2.91 -17.53 C-3.27 -17.56, -6.68 -17.28, -8.03 -16.7 C-9.39 -16.12, -10.3 -14.87, -11.04 -14.05 C-11.78 -13.23, -12.12 -12.66, -12.5 -11.78 C-12.87 -10.89, -13.12 -9.77, -13.28 -8.73 C-13.45 -7.69, -13.57 -6.43, -13.51 -5.51 C-13.45 -4.59, -13.19 -3.85, -12.91 -3.2 C-12.64 -2.54, -12.35 -2.12, -11.86 -1.58 C-11.37 -1.04, -10.75 -0.43, -9.97 0.03 C-9.18 0.49, -8.2 0.96, -7.14 1.21 C-6.09 1.45, -4.91 1.68, -3.65 1.49 C-2.38 1.29, -0.24 0.28, 0.44 0.04 M0 0 C-0.29 0.03, -1.14 0.2, -1.71 0.2 C-2.29 0.2, -2.78 0.13, -3.44 0.01 C-4.09 -0.11, -4.93 -0.28, -5.65 -0.54 C-6.37 -0.8, -7.11 -1.09, -7.73 -1.56 C-8.35 -2.03, -8.82 -2.58, -9.36 -3.34 C-9.9 -4.09, -10.72 -5.01, -10.97 -6.09 C-11.22 -7.18, -11.13 -8.59, -10.86 -9.86 C-10.58 -11.13, -10.14 -12.61, -9.31 -13.72 C-8.48 -14.82, -6.93 -15.86, -5.86 -16.5 C-4.79 -17.13, -2.55 -17.5, -2.91 -17.53 C-3.27 -17.56, -6.68 -17.28, -8.03 -16.7 C-9.39 -16.12, -10.3 -14.87, -11.04 -14.05 C-11.78 -13.23, -12.12 -12.66, -12.5 -11.78 C-12.87 -10.89, -13.12 -9.77, -13.28 -8.73 C-13.45 -7.69, -13.57 -6.43, -13.51 -5.51 C-13.45 -4.59, -13.19 -3.85, -12.91 -3.2 C-12.64 -2.54, -12.35 -2.12, -11.86 -1.58 C-11.37 -1.04, -10.75 -0.43, -9.97 0.03 C-9.18 0.49, -8.2 0.96, -7.14 1.21 C-6.09 1.45, -4.91 1.68, -3.65 1.49 C-2.38 1.29, -0.24 0.28, 0.44 0.04" stroke="#000000" stroke-width="2" fill="none"></path></g></g><mask></mask><g stroke-linecap="round"><g stroke-opacity="0.1" fill-opacity="0.1" transform="translate(234.6216211443559 36.418231160633695) rotate(0 -4.638506142707001 -9.078957781905785)" fill-rule="evenodd"><path d="M0 0 L-3.89 -2.28 L-6.89 -5.89 L-7.54 -10.66 L-5.99 -14.52 L-2.54 -17.3 L0.41 -18.33 L-4.71 -17.5 L-9.18 -12.58 L-9.73 -9.57 L-9.27 -6.11 L-7.9 -3.1 L-2.35 0.09 L0 0" stroke="none" stroke-width="0" fill="#000000" fill-rule="evenodd"></path><path d="M0 0 C-0.65 -0.38, -2.75 -1.3, -3.89 -2.28 C-5.04 -3.26, -6.28 -4.5, -6.89 -5.89 C-7.5 -7.29, -7.69 -9.23, -7.54 -10.66 C-7.39 -12.1, -6.82 -13.41, -5.99 -14.52 C-5.16 -15.62, -3.61 -16.66, -2.54 -17.3 C-1.47 -17.93, 0.77 -18.3, 0.41 -18.33 C0.05 -18.36, -3.36 -18.08, -4.71 -17.5 C-6.07 -16.92, -6.98 -15.67, -7.72 -14.85 C-8.47 -14.03, -8.84 -13.46, -9.18 -12.58 C-9.51 -11.7, -9.71 -10.65, -9.73 -9.57 C-9.74 -8.49, -9.57 -7.19, -9.27 -6.11 C-8.97 -5.03, -8.48 -3.89, -7.9 -3.1 C-7.33 -2.31, -6.73 -1.9, -5.81 -1.37 C-4.88 -0.84, -3.31 -0.14, -2.35 0.09 C-1.38 0.32, -0.39 0.01, 0 0 M0 0 C-0.65 -0.38, -2.75 -1.3, -3.89 -2.28 C-5.04 -3.26, -6.28 -4.5, -6.89 -5.89 C-7.5 -7.29, -7.69 -9.23, -7.54 -10.66 C-7.39 -12.1, -6.82 -13.41, -5.99 -14.52 C-5.16 -15.62, -3.61 -16.66, -2.54 -17.3 C-1.47 -17.93, 0.77 -18.3, 0.41 -18.33 C0.05 -18.36, -3.36 -18.08, -4.71 -17.5 C-6.07 -16.92, -6.98 -15.67, -7.72 -14.85 C-8.47 -14.03, -8.84 -13.46, -9.18 -12.58 C-9.51 -11.7, -9.71 -10.65, -9.73 -9.57 C-9.74 -8.49, -9.57 -7.19, -9.27 -6.11 C-8.97 -5.03, -8.48 -3.89, -7.9 -3.1 C-7.33 -2.31, -6.73 -1.9, -5.81 -1.37 C-4.88 -0.84, -3.31 -0.14, -2.35 0.09 C-1.38 0.32, -0.39 0.01, 0 0" stroke="#000000" stroke-width="2" fill="none"></path></g></g><mask></mask><g stroke-linecap="round" transform="translate(224.44055636210442 17.91964378008845) rotate(0 9.247993481907201 9.339106718182165)"><path d="M7.85 -0.01 C9.66 -0.63, 12.87 -0.69, 14.38 0.17 C15.9 1.03, 16.21 3.14, 16.94 5.14 C17.67 7.14, 19.24 10.17, 18.77 12.19 C18.3 14.21, 15.95 16.31, 14.12 17.26 C12.28 18.21, 9.86 18.11, 7.76 17.87 C5.66 17.63, 2.75 17.3, 1.53 15.82 C0.31 14.33, 0.22 10.9, 0.44 8.97 C0.66 7.03, 1.35 5.79, 2.86 4.21 C4.37 2.63, 8.15 0.14, 9.48 -0.51 C10.82 -1.16, 10.93 0.04, 10.87 0.32 M8.26 -1.02 C10.11 -1.29, 14.48 -0.99, 16.17 0.68 C17.86 2.34, 17.99 6.53, 18.39 8.97 C18.8 11.41, 19.5 13.7, 18.61 15.31 C17.72 16.93, 14.88 18.37, 13.04 18.66 C11.2 18.96, 9.57 17.89, 7.56 17.06 C5.56 16.22, 2.08 15.34, 1.01 13.64 C-0.07 11.94, 0.98 9.02, 1.12 6.87 C1.27 4.73, 0.47 1.96, 1.85 0.77 C3.22 -0.42, 8.15 -0.4, 9.38 -0.28 C10.62 -0.17, 9.39 1.12, 9.26 1.44" stroke="#000000" stroke-width="2" fill="none"></path></g><g stroke-linecap="round" transform="translate(252.45126923666385 17.802795765637484) rotate(0 9.247993481907201 9.339106718182165)"><path d="M12.49 1.41 C14.16 1.78, 15.61 2.26, 16.45 4.03 C17.29 5.8, 17.8 9.89, 17.53 12 C17.27 14.12, 16.3 15.62, 14.86 16.71 C13.43 17.8, 11 18.74, 8.91 18.54 C6.83 18.33, 3.8 16.73, 2.37 15.49 C0.95 14.25, 0.64 12.8, 0.37 11.1 C0.1 9.39, -0.35 7.02, 0.76 5.27 C1.88 3.51, 4.99 1.33, 7.04 0.55 C9.1 -0.22, 11.9 0.46, 13.11 0.62 C14.31 0.79, 14.22 1.32, 14.27 1.53 M11.99 1.87 C13.63 2.69, 14.86 3.47, 16.13 5.31 C17.39 7.14, 19.59 10.88, 19.59 12.9 C19.58 14.92, 17.82 16.23, 16.08 17.42 C14.35 18.61, 11.58 20.3, 9.19 20.03 C6.8 19.75, 3.33 17.22, 1.72 15.77 C0.12 14.31, -0.23 13.49, -0.42 11.32 C-0.6 9.14, -0.31 4.53, 0.63 2.74 C1.56 0.96, 3.2 0.91, 5.22 0.61 C7.23 0.31, 11.23 0.95, 12.73 0.93 C14.22 0.91, 14.09 0.36, 14.19 0.46" stroke="#000000" stroke-width="2" fill="none"></path></g><g stroke-linecap="round" transform="translate(231.27415685378196 25.20924153736553) rotate(0 1.8678213436364786 1.776708107361486)"><path d="M3.16 0.77 C3.7 0.77, 3.98 0.76, 4.05 0.97 C4.13 1.19, 3.67 1.6, 3.62 2.04 C3.57 2.47, 4.1 3.24, 3.78 3.57 C3.45 3.89, 2.14 4.2, 1.67 3.98 C1.19 3.77, 1.06 2.67, 0.93 2.29 C0.8 1.91, 1.08 1.89, 0.86 1.69 C0.65 1.49, -0.48 1.3, -0.37 1.07 C-0.26 0.83, 1 0.52, 1.55 0.28 C2.1 0.04, 2.53 -0.33, 2.91 -0.39 C3.29 -0.44, 4 -0.21, 3.85 -0.04 M1.17 -0.89 C1.66 -0.89, 3.96 -0.15, 4.56 0.22 C5.17 0.6, 4.97 0.98, 4.8 1.37 C4.62 1.77, 4.09 2.42, 3.5 2.59 C2.9 2.77, 1.86 2.31, 1.22 2.42 C0.57 2.52, -0.27 3.38, -0.36 3.24 C-0.45 3.1, 0.7 1.76, 0.68 1.6 C0.67 1.43, -0.65 2.66, -0.44 2.23 C-0.22 1.81, 1.49 -0.75, 1.99 -0.97 C2.48 -1.19, 2.67 0.73, 2.54 0.91 C2.41 1.08, 1.01 0.22, 1.22 0.07" stroke="none" stroke-width="0" fill="#000000"></path><path d="M2.41 -0.95 C2.56 -1.1, 1.68 -0.81, 2.01 -0.46 C2.35 -0.1, 4.15 0.71, 4.41 1.2 C4.67 1.68, 3.91 2.23, 3.6 2.47 C3.29 2.72, 3.04 2.46, 2.54 2.67 C2.04 2.89, 0.9 3.86, 0.61 3.78 C0.32 3.7, 0.74 2.43, 0.79 2.19 C0.83 1.94, 0.89 2.68, 0.86 2.32 C0.83 1.96, 0.5 0.43, 0.62 0.03 C0.73 -0.38, 1.29 -0.16, 1.53 -0.11 C1.78 -0.06, 2 0.14, 2.08 0.33 M2.52 -1.39 C3.04 -1.1, 2.39 0.92, 2.79 1.57 C3.18 2.21, 4.66 2.27, 4.89 2.5 C5.12 2.72, 4.28 2.95, 4.18 2.9 C4.07 2.84, 4.72 2.15, 4.25 2.18 C3.77 2.21, 1.8 3.1, 1.34 3.07 C0.88 3.05, 1.95 2.47, 1.5 2.02 C1.04 1.57, -1.22 0.64, -1.37 0.37 C-1.51 0.1, 0.14 0.26, 0.63 0.41 C1.12 0.57, 1.53 1.23, 1.58 1.3 C1.64 1.37, 0.99 1.01, 0.95 0.82" stroke="#000000" stroke-width="2" fill="none"></path></g><g stroke-linecap="round" transform="translate(233.31420459377364 25.51611731054811) rotate(0 0.36445294509974246 0.4555661813747349)"><path d="M0.73 0.46 C0.73 0.48, 0.73 0.51, 0.72 0.53 C0.72 0.56, 0.71 0.59, 0.71 0.61 C0.7 0.64, 0.69 0.66, 0.68 0.68 C0.67 0.71, 0.66 0.73, 0.64 0.75 C0.63 0.77, 0.61 0.79, 0.6 0.8 C0.58 0.82, 0.56 0.84, 0.55 0.85 C0.53 0.86, 0.51 0.87, 0.49 0.88 C0.47 0.89, 0.45 0.9, 0.43 0.9 C0.41 0.91, 0.39 0.91, 0.36 0.91 C0.34 0.91, 0.32 0.91, 0.3 0.9 C0.28 0.9, 0.26 0.89, 0.24 0.88 C0.22 0.87, 0.2 0.86, 0.18 0.85 C0.16 0.84, 0.15 0.82, 0.13 0.8 C0.11 0.79, 0.1 0.77, 0.09 0.75 C0.07 0.73, 0.06 0.71, 0.05 0.68 C0.04 0.66, 0.03 0.64, 0.02 0.61 C0.01 0.59, 0.01 0.56, 0.01 0.53 C0 0.51, 0 0.48, 0 0.46 C0 0.43, 0 0.4, 0.01 0.38 C0.01 0.35, 0.01 0.32, 0.02 0.3 C0.03 0.27, 0.04 0.25, 0.05 0.23 C0.06 0.2, 0.07 0.18, 0.09 0.16 C0.1 0.14, 0.11 0.12, 0.13 0.11 C0.15 0.09, 0.16 0.07, 0.18 0.06 C0.2 0.05, 0.22 0.04, 0.24 0.03 C0.26 0.02, 0.28 0.01, 0.3 0.01 C0.32 0, 0.34 0, 0.36 0 C0.39 0, 0.41 0, 0.43 0.01 C0.45 0.01, 0.47 0.02, 0.49 0.03 C0.51 0.04, 0.53 0.05, 0.55 0.06 C0.56 0.07, 0.58 0.09, 0.6 0.11 C0.61 0.12, 0.63 0.14, 0.64 0.16 C0.66 0.18, 0.67 0.2, 0.68 0.23 C0.69 0.25, 0.7 0.27, 0.71 0.3 C0.71 0.32, 0.72 0.35, 0.72 0.38 C0.73 0.4, 0.73 0.44, 0.73 0.46 C0.73 0.47, 0.73 0.44, 0.73 0.46" stroke="none" stroke-width="0" fill="#ffffff"></path><path d="M0.73 0.46 C0.73 0.48, 0.73 0.51, 0.72 0.53 C0.72 0.56, 0.71 0.59, 0.71 0.61 C0.7 0.64, 0.69 0.66, 0.68 0.68 C0.67 0.71, 0.66 0.73, 0.64 0.75 C0.63 0.77, 0.61 0.79, 0.6 0.8 C0.58 0.82, 0.56 0.84, 0.55 0.85 C0.53 0.86, 0.51 0.87, 0.49 0.88 C0.47 0.89, 0.45 0.9, 0.43 0.9 C0.41 0.91, 0.39 0.91, 0.36 0.91 C0.34 0.91, 0.32 0.91, 0.3 0.9 C0.28 0.9, 0.26 0.89, 0.24 0.88 C0.22 0.87, 0.2 0.86, 0.18 0.85 C0.16 0.84, 0.15 0.82, 0.13 0.8 C0.11 0.79, 0.1 0.77, 0.09 0.75 C0.07 0.73, 0.06 0.71, 0.05 0.68 C0.04 0.66, 0.03 0.64, 0.02 0.61 C0.01 0.59, 0.01 0.56, 0.01 0.53 C0 0.51, 0 0.48, 0 0.46 C0 0.43, 0 0.4, 0.01 0.38 C0.01 0.35, 0.01 0.32, 0.02 0.3 C0.03 0.27, 0.04 0.25, 0.05 0.23 C0.06 0.2, 0.07 0.18, 0.09 0.16 C0.1 0.14, 0.11 0.12, 0.13 0.11 C0.15 0.09, 0.16 0.07, 0.18 0.06 C0.2 0.05, 0.22 0.04, 0.24 0.03 C0.26 0.02, 0.28 0.01, 0.3 0.01 C0.32 0, 0.34 0, 0.36 0 C0.39 0, 0.41 0, 0.43 0.01 C0.45 0.01, 0.47 0.02, 0.49 0.03 C0.51 0.04, 0.53 0.05, 0.55 0.06 C0.56 0.07, 0.58 0.09, 0.6 0.11 C0.61 0.12, 0.63 0.14, 0.64 0.16 C0.66 0.18, 0.67 0.2, 0.68 0.23 C0.69 0.25, 0.7 0.27, 0.71 0.3 C0.71 0.32, 0.72 0.35, 0.72 0.38 C0.73 0.4, 0.73 0.44, 0.73 0.46 C0.73 0.47, 0.73 0.44, 0.73 0.46" stroke="#ffffff" stroke-width="2" fill="none"></path></g><g stroke-linecap="round" transform="translate(260.4029005995019 25.592264357735814) rotate(0 1.8678213436364786 1.776708107361486)"><path d="M3.02 0.05 C3.3 0.02, 3.2 0.3, 3.46 0.7 C3.71 1.1, 4.63 1.96, 4.56 2.45 C4.48 2.93, 3.41 3.54, 3.02 3.6 C2.64 3.66, 2.48 2.94, 2.23 2.82 C1.97 2.7, 1.99 2.97, 1.5 2.89 C1.01 2.82, -0.52 2.68, -0.7 2.38 C-0.88 2.08, 0.09 1.58, 0.42 1.08 C0.74 0.58, 0.73 -0.37, 1.23 -0.62 C1.72 -0.86, 3.26 -0.57, 3.39 -0.39 C3.52 -0.22, 2.04 0.29, 2.02 0.45 M2.94 -0.61 C3.72 -0.58, 3.93 -0.51, 4.12 -0.26 C4.31 0, 4.3 0.64, 4.08 0.93 C3.85 1.23, 3.22 1.07, 2.78 1.5 C2.34 1.93, 1.6 3.26, 1.46 3.49 C1.31 3.73, 2.21 2.82, 1.91 2.9 C1.6 2.99, -0.21 4.4, -0.38 3.98 C-0.56 3.57, 0.66 0.86, 0.84 0.4 C1.03 -0.05, 0.77 1.33, 0.74 1.26 C0.7 1.18, 0.2 0.2, 0.62 -0.05 C1.04 -0.3, 3.09 -0.49, 3.27 -0.25" stroke="none" stroke-width="0" fill="#000000"></path><path d="M0.78 -0.76 C1.16 -0.67, 3.18 -0.12, 3.67 0.21 C4.15 0.55, 3.73 1, 3.69 1.26 C3.65 1.53, 3.74 1.41, 3.43 1.8 C3.13 2.2, 2.14 3.48, 1.88 3.66 C1.61 3.83, 1.95 2.9, 1.84 2.87 C1.73 2.84, 1.5 3.78, 1.21 3.49 C0.92 3.2, 0.29 1.65, 0.09 1.13 C-0.1 0.62, -0.23 0.57, 0.05 0.42 C0.32 0.27, 1.36 0.16, 1.74 0.24 C2.11 0.33, 2.32 1.03, 2.29 0.93 M1.3 1.47 C1.69 1.8, 3.37 1.51, 3.82 1.51 C4.28 1.52, 3.81 1.58, 4.02 1.49 C4.23 1.41, 5.28 0.81, 5.08 1 C4.87 1.2, 3.14 2.42, 2.77 2.68 C2.4 2.95, 3.43 2.77, 2.85 2.6 C2.27 2.42, -0.29 1.78, -0.72 1.64 C-1.15 1.51, 0.09 1.7, 0.27 1.78 C0.45 1.87, 0.3 2.29, 0.38 2.13 C0.46 1.97, 0.61 1.19, 0.73 0.84 C0.85 0.5, 1.12 0.01, 1.12 0.06" stroke="#000000" stroke-width="2" fill="none"></path></g><g stroke-linecap="round" transform="translate(262.4429483394938 25.96823273721901) rotate(0 0.36445294509974246 0.4555661813747349)"><path d="M0.73 0.46 C0.73 0.48, 0.73 0.51, 0.72 0.53 C0.72 0.56, 0.71 0.59, 0.71 0.61 C0.7 0.64, 0.69 0.66, 0.68 0.68 C0.67 0.71, 0.66 0.73, 0.64 0.75 C0.63 0.77, 0.61 0.79, 0.6 0.8 C0.58 0.82, 0.56 0.84, 0.55 0.85 C0.53 0.86, 0.51 0.87, 0.49 0.88 C0.47 0.89, 0.45 0.9, 0.43 0.9 C0.41 0.91, 0.39 0.91, 0.36 0.91 C0.34 0.91, 0.32 0.91, 0.3 0.9 C0.28 0.9, 0.26 0.89, 0.24 0.88 C0.22 0.87, 0.2 0.86, 0.18 0.85 C0.16 0.84, 0.15 0.82, 0.13 0.8 C0.11 0.79, 0.1 0.77, 0.09 0.75 C0.07 0.73, 0.06 0.71, 0.05 0.68 C0.04 0.66, 0.03 0.64, 0.02 0.61 C0.01 0.59, 0.01 0.56, 0.01 0.53 C0 0.51, 0 0.48, 0 0.46 C0 0.43, 0 0.4, 0.01 0.38 C0.01 0.35, 0.01 0.32, 0.02 0.3 C0.03 0.27, 0.04 0.25, 0.05 0.23 C0.06 0.2, 0.07 0.18, 0.09 0.16 C0.1 0.14, 0.11 0.12, 0.13 0.11 C0.15 0.09, 0.16 0.07, 0.18 0.06 C0.2 0.05, 0.22 0.04, 0.24 0.03 C0.26 0.02, 0.28 0.01, 0.3 0.01 C0.32 0, 0.34 0, 0.36 0 C0.39 0, 0.41 0, 0.43 0.01 C0.45 0.01, 0.47 0.02, 0.49 0.03 C0.51 0.04, 0.53 0.05, 0.55 0.06 C0.56 0.07, 0.58 0.09, 0.6 0.11 C0.61 0.12, 0.63 0.14, 0.64 0.16 C0.66 0.18, 0.67 0.2, 0.68 0.23 C0.69 0.25, 0.7 0.27, 0.71 0.3 C0.71 0.32, 0.72 0.35, 0.72 0.38 C0.73 0.4, 0.73 0.44, 0.73 0.46 C0.73 0.47, 0.73 0.44, 0.73 0.46" stroke="none" stroke-width="0" fill="#ffffff"></path><path d="M0.73 0.46 C0.73 0.48, 0.73 0.51, 0.72 0.53 C0.72 0.56, 0.71 0.59, 0.71 0.61 C0.7 0.64, 0.69 0.66, 0.68 0.68 C0.67 0.71, 0.66 0.73, 0.64 0.75 C0.63 0.77, 0.61 0.79, 0.6 0.8 C0.58 0.82, 0.56 0.84, 0.55 0.85 C0.53 0.86, 0.51 0.87, 0.49 0.88 C0.47 0.89, 0.45 0.9, 0.43 0.9 C0.41 0.91, 0.39 0.91, 0.36 0.91 C0.34 0.91, 0.32 0.91, 0.3 0.9 C0.28 0.9, 0.26 0.89, 0.24 0.88 C0.22 0.87, 0.2 0.86, 0.18 0.85 C0.16 0.84, 0.15 0.82, 0.13 0.8 C0.11 0.79, 0.1 0.77, 0.09 0.75 C0.07 0.73, 0.06 0.71, 0.05 0.68 C0.04 0.66, 0.03 0.64, 0.02 0.61 C0.01 0.59, 0.01 0.56, 0.01 0.53 C0 0.51, 0 0.48, 0 0.46 C0 0.43, 0 0.4, 0.01 0.38 C0.01 0.35, 0.01 0.32, 0.02 0.3 C0.03 0.27, 0.04 0.25, 0.05 0.23 C0.06 0.2, 0.07 0.18, 0.09 0.16 C0.1 0.14, 0.11 0.12, 0.13 0.11 C0.15 0.09, 0.16 0.07, 0.18 0.06 C0.2 0.05, 0.22 0.04, 0.24 0.03 C0.26 0.02, 0.28 0.01, 0.3 0.01 C0.32 0, 0.34 0, 0.36 0 C0.39 0, 0.41 0, 0.43 0.01 C0.45 0.01, 0.47 0.02, 0.49 0.03 C0.51 0.04, 0.53 0.05, 0.55 0.06 C0.56 0.07, 0.58 0.09, 0.6 0.11 C0.61 0.12, 0.63 0.14, 0.64 0.16 C0.66 0.18, 0.67 0.2, 0.68 0.23 C0.69 0.25, 0.7 0.27, 0.71 0.3 C0.71 0.32, 0.72 0.35, 0.72 0.38 C0.73 0.4, 0.73 0.44, 0.73 0.46 C0.73 0.47, 0.73 0.44, 0.73 0.46" stroke="#ffffff" stroke-width="2" fill="none"></path></g><g stroke-linecap="round"><g transform="translate(243.4400108609468 38.4469704059826) rotate(0 3.622521568603929 -0.964662063177002)" fill-rule="evenodd"><path d="M0 0 L1.33 -2.55 L3.44 -2.9 L6.8 -1.66 L7.25 -0.28 L6.57 0.8 L1.65 0.97 L0.02 0.09" stroke="none" stroke-width="0" fill="#ccbdac" fill-rule="evenodd"></path><path d="M0 0 C0.02 -0.2, -0.09 -0.75, 0.13 -1.17 C0.35 -1.6, 0.78 -2.27, 1.33 -2.55 C1.88 -2.84, 2.79 -2.87, 3.44 -2.9 C4.08 -2.92, 4.65 -2.91, 5.21 -2.7 C5.77 -2.5, 6.46 -2.07, 6.8 -1.66 C7.14 -1.26, 7.29 -0.69, 7.25 -0.28 C7.21 0.13, 7.17 0.68, 6.57 0.8 C5.97 0.93, 4.46 0.45, 3.64 0.48 C2.82 0.51, 2.18 0.94, 1.65 0.97 C1.12 1.01, 0.74 0.84, 0.47 0.7 C0.2 0.55, 0.09 0.19, 0.02 0.09 M0 0 C0.02 -0.2, -0.09 -0.75, 0.13 -1.17 C0.35 -1.6, 0.78 -2.27, 1.33 -2.55 C1.88 -2.84, 2.79 -2.87, 3.44 -2.9 C4.08 -2.92, 4.65 -2.91, 5.21 -2.7 C5.77 -2.5, 6.46 -2.07, 6.8 -1.66 C7.14 -1.26, 7.29 -0.69, 7.25 -0.28 C7.21 0.13, 7.17 0.68, 6.57 0.8 C5.97 0.93, 4.46 0.45, 3.64 0.48 C2.82 0.51, 2.18 0.94, 1.65 0.97 C1.12 1.01, 0.74 0.84, 0.47 0.7 C0.2 0.55, 0.09 0.19, 0.02 0.09" stroke="#000000" stroke-width="2" fill="none"></path></g></g><mask></mask><g stroke-linecap="round"><g transform="translate(246.3518665191266 39.064192363007066) rotate(0 -0.8984638782280854 -1.4234108108933583)" fill-rule="evenodd"><path d="M0 0 L-1.53 -0.44 L-1.74 -1.27 L0.88 -2.09 L-0.27 -3.15 L-1.49 -2.96 L-2.56 -1.84 L-2.58 -0.36 L-1.62 0.35 L0 0" stroke="none" stroke-width="0" fill="#958b7f" fill-rule="evenodd"></path><path d="M0 0 C-0.05 -0.01, -0.04 0.02, -0.3 -0.06 C-0.55 -0.13, -1.29 -0.24, -1.53 -0.44 C-1.77 -0.65, -1.84 -1.03, -1.74 -1.27 C-1.64 -1.5, -1.39 -1.72, -0.95 -1.85 C-0.51 -1.99, 0.77 -1.87, 0.88 -2.09 C0.99 -2.31, 0.12 -3, -0.27 -3.15 C-0.67 -3.29, -1.17 -3.09, -1.49 -2.96 C-1.82 -2.83, -2.03 -2.54, -2.21 -2.35 C-2.39 -2.17, -2.48 -2.04, -2.56 -1.84 C-2.63 -1.63, -2.68 -1.4, -2.69 -1.15 C-2.69 -0.9, -2.67 -0.57, -2.58 -0.36 C-2.49 -0.14, -2.3 0.02, -2.15 0.14 C-1.99 0.26, -1.87 0.34, -1.62 0.35 C-1.37 0.36, -0.93 0.24, -0.66 0.18 C-0.39 0.12, -0.11 0.03, 0 0 M0 0 C-0.05 -0.01, -0.04 0.02, -0.3 -0.06 C-0.55 -0.13, -1.29 -0.24, -1.53 -0.44 C-1.77 -0.65, -1.84 -1.03, -1.74 -1.27 C-1.64 -1.5, -1.39 -1.72, -0.95 -1.85 C-0.51 -1.99, 0.77 -1.87, 0.88 -2.09 C0.99 -2.31, 0.12 -3, -0.27 -3.15 C-0.67 -3.29, -1.17 -3.09, -1.49 -2.96 C-1.82 -2.83, -2.03 -2.54, -2.21 -2.35 C-2.39 -2.17, -2.48 -2.04, -2.56 -1.84 C-2.63 -1.63, -2.68 -1.4, -2.69 -1.15 C-2.69 -0.9, -2.67 -0.57, -2.58 -0.36 C-2.49 -0.14, -2.3 0.02, -2.15 0.14 C-1.99 0.26, -1.87 0.34, -1.62 0.35 C-1.37 0.36, -0.93 0.24, -0.66 0.18 C-0.39 0.12, -0.11 0.03, 0 0" stroke="#958b7f" stroke-width="2" fill="none"></path></g></g><mask></mask><g stroke-linecap="round"><g transform="translate(243.407367826994 38.44593323070404) rotate(0 3.642874247313898 -0.9742607025238783)"><path d="M0 0 C0.03 -0.2, -0.07 -0.76, 0.16 -1.18 C0.38 -1.61, 0.81 -2.28, 1.36 -2.56 C1.91 -2.85, 2.82 -2.88, 3.47 -2.91 C4.11 -2.93, 4.68 -2.92, 5.24 -2.71 C5.8 -2.51, 6.49 -2.07, 6.83 -1.67 C7.17 -1.27, 7.32 -0.7, 7.28 -0.29 C7.24 0.12, 7.2 0.67, 6.6 0.79 C6 0.92, 4.49 0.44, 3.67 0.47 C2.85 0.5, 2.21 0.93, 1.68 0.96 C1.15 1, 0.78 0.85, 0.5 0.69 C0.22 0.53, 0.08 0.11, 0 0 M0 0 C0.03 -0.2, -0.07 -0.76, 0.16 -1.18 C0.38 -1.61, 0.81 -2.28, 1.36 -2.56 C1.91 -2.85, 2.82 -2.88, 3.47 -2.91 C4.11 -2.93, 4.68 -2.92, 5.24 -2.71 C5.8 -2.51, 6.49 -2.07, 6.83 -1.67 C7.17 -1.27, 7.32 -0.7, 7.28 -0.29 C7.24 0.12, 7.2 0.67, 6.6 0.79 C6 0.92, 4.49 0.44, 3.67 0.47 C2.85 0.5, 2.21 0.93, 1.68 0.96 C1.15 1, 0.78 0.85, 0.5 0.69 C0.22 0.53, 0.08 0.11, 0 0" stroke="#000000" stroke-width="2" fill="none"></path></g></g><mask></mask><g stroke-linecap="round"><g transform="translate(244.5164381816155 35.19470939486848) rotate(0 2.504905655027187 0.1917125839596565)" fill-rule="evenodd"><path d="M0 0 L0.92 -1.27 L4.92 -0.74 L4.75 0.73 L2.74 1.85 L0 0" stroke="none" stroke-width="0" fill="#595755" fill-rule="evenodd"></path><path d="M0 0 C0.01 -0.12, -0.1 -0.5, 0.06 -0.71 C0.21 -0.92, 0.52 -1.14, 0.92 -1.27 C1.32 -1.39, 1.99 -1.45, 2.46 -1.47 C2.94 -1.48, 3.35 -1.48, 3.76 -1.36 C4.17 -1.23, 4.75 -1.08, 4.92 -0.74 C5.08 -0.39, 5.11 0.3, 4.75 0.73 C4.39 1.16, 3.36 1.76, 2.74 1.85 C2.12 1.93, 1.45 1.47, 1.04 1.25 C0.63 1.03, 0.44 0.75, 0.27 0.54 C0.1 0.33, 0.05 0.09, 0 0 M0 0 C0.01 -0.12, -0.1 -0.5, 0.06 -0.71 C0.21 -0.92, 0.52 -1.14, 0.92 -1.27 C1.32 -1.39, 1.99 -1.45, 2.46 -1.47 C2.94 -1.48, 3.35 -1.48, 3.76 -1.36 C4.17 -1.23, 4.75 -1.08, 4.92 -0.74 C5.08 -0.39, 5.11 0.3, 4.75 0.73 C4.39 1.16, 3.36 1.76, 2.74 1.85 C2.12 1.93, 1.45 1.47, 1.04 1.25 C0.63 1.03, 0.44 0.75, 0.27 0.54 C0.1 0.33, 0.05 0.09, 0 0" stroke="#000000" stroke-width="2" fill="none"></path></g></g><mask></mask><g stroke-linecap="round"><g transform="translate(247.65344420032193 36.85530634034416) rotate(0 -1.5438332578031577 -1.46886611465888)" fill-rule="evenodd"><path d="M0 0 L-2.1 -1.34 L-0.67 -3.09 L-2.6 -2.69 L-2.72 -0.95 L-0.58 0.16" stroke="none" stroke-width="0" fill="#454342" fill-rule="evenodd"></path><path d="M0 0 C-0.12 -0.03, -0.46 -0.1, -0.71 -0.21 C-0.96 -0.32, -1.29 -0.47, -1.52 -0.66 C-1.75 -0.85, -2 -1.1, -2.1 -1.34 C-2.19 -1.57, -2.18 -1.85, -2.07 -2.07 C-1.97 -2.29, -1.68 -2.5, -1.45 -2.67 C-1.21 -2.84, -0.6 -3.04, -0.67 -3.09 C-0.73 -3.14, -1.5 -3.02, -1.82 -2.95 C-2.14 -2.88, -2.41 -2.82, -2.6 -2.69 C-2.79 -2.56, -2.87 -2.37, -2.95 -2.17 C-3.03 -1.97, -3.12 -1.69, -3.08 -1.48 C-3.04 -1.28, -2.85 -1.1, -2.72 -0.95 C-2.59 -0.81, -2.44 -0.71, -2.29 -0.59 C-2.15 -0.48, -2.03 -0.37, -1.86 -0.27 C-1.68 -0.17, -1.45 -0.04, -1.24 0.03 C-1.03 0.1, -0.69 0.14, -0.58 0.16 M0 0 C-0.12 -0.03, -0.46 -0.1, -0.71 -0.21 C-0.96 -0.32, -1.29 -0.47, -1.52 -0.66 C-1.75 -0.85, -2 -1.1, -2.1 -1.34 C-2.19 -1.57, -2.18 -1.85, -2.07 -2.07 C-1.97 -2.29, -1.68 -2.5, -1.45 -2.67 C-1.21 -2.84, -0.6 -3.04, -0.67 -3.09 C-0.73 -3.14, -1.5 -3.02, -1.82 -2.95 C-2.14 -2.88, -2.41 -2.82, -2.6 -2.69 C-2.79 -2.56, -2.87 -2.37, -2.95 -2.17 C-3.03 -1.97, -3.12 -1.69, -3.08 -1.48 C-3.04 -1.28, -2.85 -1.1, -2.72 -0.95 C-2.59 -0.81, -2.44 -0.71, -2.29 -0.59 C-2.15 -0.48, -2.03 -0.37, -1.86 -0.27 C-1.68 -0.17, -1.45 -0.04, -1.24 0.03 C-1.03 0.1, -0.69 0.14, -0.58 0.16" stroke="#454342" stroke-width="2" fill="none"></path></g></g><mask></mask><g stroke-linecap="round"><g transform="translate(244.50897930738506 35.189931733412664) rotate(0 2.504905655027187 0.1917125839596565)"><path d="M0 0 C0.01 -0.12, -0.1 -0.5, 0.06 -0.71 C0.21 -0.92, 0.52 -1.14, 0.92 -1.27 C1.32 -1.39, 1.99 -1.45, 2.46 -1.47 C2.94 -1.48, 3.35 -1.48, 3.76 -1.36 C4.17 -1.23, 4.75 -1.08, 4.92 -0.74 C5.08 -0.39, 5.11 0.3, 4.75 0.73 C4.39 1.16, 3.36 1.76, 2.74 1.85 C2.12 1.93, 1.45 1.47, 1.04 1.25 C0.63 1.03, 0.44 0.75, 0.27 0.54 C0.1 0.33, 0.05 0.09, 0 0 M0 0 C0.01 -0.12, -0.1 -0.5, 0.06 -0.71 C0.21 -0.92, 0.52 -1.14, 0.92 -1.27 C1.32 -1.39, 1.99 -1.45, 2.46 -1.47 C2.94 -1.48, 3.35 -1.48, 3.76 -1.36 C4.17 -1.23, 4.75 -1.08, 4.92 -0.74 C5.08 -0.39, 5.11 0.3, 4.75 0.73 C4.39 1.16, 3.36 1.76, 2.74 1.85 C2.12 1.93, 1.45 1.47, 1.04 1.25 C0.63 1.03, 0.44 0.75, 0.27 0.54 C0.1 0.33, 0.05 0.09, 0 0" stroke="#000000" stroke-width="2" fill="none"></path></g></g><mask></mask><g stroke-linecap="round"><g transform="translate(248.38751972937712 34.413185442386464) rotate(0 0.2557224507893352 0.4379959307192962)" fill-rule="evenodd"><path d="" stroke="none" stroke-width="0" fill="#454342" fill-rule="evenodd"></path><path d="M0 0 C0.07 0.06, 0.35 0.22, 0.44 0.37 C0.52 0.51, 0.5 0.79, 0.51 0.88 M0 0 C0.07 0.06, 0.35 0.22, 0.44 0.37 C0.52 0.51, 0.5 0.79, 0.51 0.88" stroke="#000000" stroke-width="2" fill="none"></path></g></g><mask></mask><g stroke-linecap="round"><g transform="translate(245.6989990902523 39.30914843977206) rotate(0 0.01531457392638913 0.6738412527625144)"><path d="M0 0 C0.01 0.22, 0.03 1.12, 0.03 1.35 M0 0 C0.01 0.22, 0.03 1.12, 0.03 1.35" stroke="#000000" stroke-width="2" fill="none"></path></g></g><mask></mask><g stroke-linecap="round"><g transform="translate(245.6823477819437 40.46770912065085) rotate(0 1.6711032098493206 -0.23443942661833717)" fill-rule="evenodd"><path d="M0 0 L1.12 1.08 L3.08 0.83 L3.4 -1.2 L-0.01 -1.13 L0 0" stroke="none" stroke-width="0" fill="#ffffff" fill-rule="evenodd"></path><path d="M0 0 C0.04 0.14, 0.08 0.65, 0.26 0.83 C0.45 1.01, 0.78 1.03, 1.12 1.08 C1.46 1.12, 1.96 1.15, 2.28 1.11 C2.61 1.07, 2.9 1.03, 3.08 0.83 C3.26 0.63, 3.31 0.24, 3.37 -0.1 C3.42 -0.44, 3.53 -0.98, 3.4 -1.2 C3.27 -1.42, 2.9 -1.36, 2.58 -1.42 C2.27 -1.49, 1.92 -1.64, 1.49 -1.59 C1.05 -1.54, 0.23 -1.39, -0.01 -1.13 C-0.26 -0.86, 0 -0.19, 0 0 M0 0 C0.04 0.14, 0.08 0.65, 0.26 0.83 C0.45 1.01, 0.78 1.03, 1.12 1.08 C1.46 1.12, 1.96 1.15, 2.28 1.11 C2.61 1.07, 2.9 1.03, 3.08 0.83 C3.26 0.63, 3.31 0.24, 3.37 -0.1 C3.42 -0.44, 3.53 -0.98, 3.4 -1.2 C3.27 -1.42, 2.9 -1.36, 2.58 -1.42 C2.27 -1.49, 1.92 -1.64, 1.49 -1.59 C1.05 -1.54, 0.23 -1.39, -0.01 -1.13 C-0.26 -0.86, 0 -0.19, 0 0" stroke="#000000" stroke-width="2" fill="none"></path></g></g><mask></mask><g stroke-linecap="round"><g transform="translate(247.32234392645296 39.12537355265505) rotate(0 0.03684891970692661 1.1485930444815438)" fill-rule="evenodd"><path d="" stroke="none" stroke-width="0" fill="#ffffff" fill-rule="evenodd"></path><path d="M0 0 C0.01 0.17, 0.06 0.64, 0.07 1.02 C0.08 1.4, 0.06 2.08, 0.06 2.3 M0 0 C0.01 0.17, 0.06 0.64, 0.07 1.02 C0.08 1.4, 0.06 2.08, 0.06 2.3" stroke="#000000" stroke-width="2" fill="none"></path></g></g><mask></mask><g stroke-linecap="round"><g transform="translate(259.33284311821376 76.19591493952538) rotate(13.687095229378706 1.6285318469690537 -0.27515491538827064)" fill-rule="evenodd"><path d="M0 0 L2.13 1.9 L3.61 1.32 L3.78 0.01 L2.13 -2.05 L0 -2.13 L-0.65 -1.28 L0 0" stroke="none" stroke-width="0" fill="#ffffff" fill-rule="evenodd"></path><path d="M0 0 C0.11 0.14, 0.28 0.52, 0.64 0.84 C0.99 1.16, 1.64 1.82, 2.13 1.9 C2.63 1.98, 3.34 1.64, 3.61 1.32 C3.89 1.01, 4.02 0.57, 3.78 0.01 C3.53 -0.55, 2.6 -1.64, 2.13 -2.05 C1.67 -2.46, 1.34 -2.44, 0.98 -2.46 C0.63 -2.47, 0.27 -2.33, 0 -2.13 C-0.27 -1.93, -0.65 -1.63, -0.65 -1.28 C-0.65 -0.92, -0.11 -0.21, 0 0 M0 0 C0.11 0.14, 0.28 0.52, 0.64 0.84 C0.99 1.16, 1.64 1.82, 2.13 1.9 C2.63 1.98, 3.34 1.64, 3.61 1.32 C3.89 1.01, 4.02 0.57, 3.78 0.01 C3.53 -0.55, 2.6 -1.64, 2.13 -2.05 C1.67 -2.46, 1.34 -2.44, 0.98 -2.46 C0.63 -2.47, 0.27 -2.33, 0 -2.13 C-0.27 -1.93, -0.65 -1.63, -0.65 -1.28 C-0.65 -0.92, -0.11 -0.21, 0 0" stroke="#000000" stroke-width="2" fill="none"></path></g></g><mask></mask><g stroke-linecap="round"><g transform="translate(228.62059039549854 75.97754677342067) rotate(72.62981121584629 1.6186331526016602 -0.38393961287886214)" fill-rule="evenodd"><path d="M0 0 L2.13 1.9 L3.4 1.26 L3.62 -0.14 L1.01 -2.67 L-0.47 -1.13 L0 0" stroke="none" stroke-width="0" fill="#ffffff" fill-rule="evenodd"></path><path d="M0 0 C0.15 0.17, 0.52 0.69, 0.88 1.01 C1.23 1.32, 1.71 1.85, 2.13 1.9 C2.56 1.94, 3.16 1.6, 3.4 1.26 C3.65 0.92, 3.83 0.41, 3.62 -0.14 C3.4 -0.69, 2.57 -1.62, 2.13 -2.05 C1.7 -2.47, 1.36 -2.65, 1.01 -2.67 C0.65 -2.68, 0.24 -2.39, 0 -2.13 C-0.25 -1.87, -0.47 -1.48, -0.47 -1.13 C-0.47 -0.77, -0.08 -0.19, 0 0 M0 0 C0.15 0.17, 0.52 0.69, 0.88 1.01 C1.23 1.32, 1.71 1.85, 2.13 1.9 C2.56 1.94, 3.16 1.6, 3.4 1.26 C3.65 0.92, 3.83 0.41, 3.62 -0.14 C3.4 -0.69, 2.57 -1.62, 2.13 -2.05 C1.7 -2.47, 1.36 -2.65, 1.01 -2.67 C0.65 -2.68, 0.24 -2.39, 0 -2.13 C-0.25 -1.87, -0.47 -1.48, -0.47 -1.13 C-0.47 -0.77, -0.08 -0.19, 0 0" stroke="#000000" stroke-width="2" fill="none"></path></g></g><mask></mask><g stroke-linecap="round"><g transform="translate(224.6147674507506 45.2274976273074) rotate(155.1023009552614 1.3176289857240135 -0.0661206615983474)" fill-rule="evenodd"><path d="M0 0 L2.08 2.31 L3.31 1.53 L0.68 -2.42 L-0.67 -1.49 L0 0" stroke="none" stroke-width="0" fill="#ffffff" fill-rule="evenodd"></path><path d="M0 0 C0.14 0.18, 0.48 0.71, 0.83 1.1 C1.17 1.48, 1.67 2.24, 2.08 2.31 C2.5 2.38, 3.23 1.89, 3.31 1.53 C3.4 1.16, 2.86 0.59, 2.59 0.12 C2.32 -0.35, 2.01 -0.87, 1.69 -1.29 C1.37 -1.71, 1.01 -2.29, 0.68 -2.42 C0.34 -2.55, -0.08 -2.22, -0.31 -2.06 C-0.53 -1.91, -0.64 -1.68, -0.67 -1.49 C-0.71 -1.29, -0.65 -1.14, -0.54 -0.89 C-0.42 -0.64, -0.09 -0.15, 0 0 M0 0 C0.14 0.18, 0.48 0.71, 0.83 1.1 C1.17 1.48, 1.67 2.24, 2.08 2.31 C2.5 2.38, 3.23 1.89, 3.31 1.53 C3.4 1.16, 2.86 0.59, 2.59 0.12 C2.32 -0.35, 2.01 -0.87, 1.69 -1.29 C1.37 -1.71, 1.01 -2.29, 0.68 -2.42 C0.34 -2.55, -0.08 -2.22, -0.31 -2.06 C-0.53 -1.91, -0.64 -1.68, -0.67 -1.49 C-0.71 -1.29, -0.65 -1.14, -0.54 -0.89 C-0.42 -0.64, -0.09 -0.15, 0 0" stroke="#000000" stroke-width="2" fill="none"></path></g></g><mask></mask><g stroke-linecap="round"><g transform="translate(267.01008934892525 45.49233061708878) rotate(271.45101079152755 1.3176289857240135 -0.0661206615983474)" fill-rule="evenodd"><path d="M0 0 L2.08 2.31 L3.31 1.53 L0.68 -2.42 L-0.67 -1.49 L0 0" stroke="none" stroke-width="0" fill="#ffffff" fill-rule="evenodd"></path><path d="M0 0 C0.14 0.18, 0.48 0.71, 0.83 1.1 C1.17 1.48, 1.67 2.24, 2.08 2.31 C2.5 2.38, 3.23 1.89, 3.31 1.53 C3.4 1.16, 2.86 0.59, 2.59 0.12 C2.32 -0.35, 2.01 -0.87, 1.69 -1.29 C1.37 -1.71, 1.01 -2.29, 0.68 -2.42 C0.34 -2.55, -0.08 -2.22, -0.31 -2.06 C-0.53 -1.91, -0.64 -1.68, -0.67 -1.49 C-0.71 -1.29, -0.65 -1.14, -0.54 -0.89 C-0.42 -0.64, -0.09 -0.15, 0 0 M0 0 C0.14 0.18, 0.48 0.71, 0.83 1.1 C1.17 1.48, 1.67 2.24, 2.08 2.31 C2.5 2.38, 3.23 1.89, 3.31 1.53 C3.4 1.16, 2.86 0.59, 2.59 0.12 C2.32 -0.35, 2.01 -0.87, 1.69 -1.29 C1.37 -1.71, 1.01 -2.29, 0.68 -2.42 C0.34 -2.55, -0.08 -2.22, -0.31 -2.06 C-0.53 -1.91, -0.64 -1.68, -0.67 -1.49 C-0.71 -1.29, -0.65 -1.14, -0.54 -0.89 C-0.42 -0.64, -0.09 -0.15, 0 0" stroke="#000000" stroke-width="2" fill="none"></path></g></g><mask></mask><g stroke-linecap="round" transform="translate(251.4730676559118 49.407756637183354) rotate(16.687830541157332 5.343277945299292 5.258464009659605)"><path d="M6.18 -0.64 C7.35 -0.67, 9.48 0.26, 10.09 1.26 C10.71 2.26, 9.87 4.1, 9.87 5.36 C9.87 6.62, 10.69 8.12, 10.1 8.83 C9.5 9.53, 7.62 9.29, 6.29 9.58 C4.95 9.87, 3.13 10.87, 2.07 10.58 C1.01 10.29, 0.3 8.97, -0.06 7.83 C-0.43 6.69, -0.52 5.03, -0.13 3.76 C0.26 2.5, 1.3 0.98, 2.29 0.25 C3.27 -0.47, 5.02 -0.67, 5.78 -0.59 C6.54 -0.51, 6.81 0.61, 6.86 0.74 M7.66 1.3 C8.34 1.86, 8.24 2.12, 8.96 2.95 C9.67 3.78, 12.06 4.99, 11.95 6.3 C11.84 7.61, 9.55 10.17, 8.29 10.78 C7.03 11.39, 5.38 10.2, 4.37 9.96 C3.36 9.72, 2.78 10.22, 2.23 9.34 C1.68 8.47, 1.13 5.94, 1.1 4.72 C1.07 3.49, 1.57 2.68, 2.05 2.01 C2.53 1.34, 3.29 0.84, 3.97 0.72 C4.65 0.61, 5.36 1.19, 6.11 1.32 C6.86 1.45, 8.33 1.4, 8.46 1.5" stroke="none" stroke-width="0" fill="#cde9e9"></path><path d="M6.63 0.18 C7.62 0.59, 9.01 1.69, 9.67 2.81 C10.33 3.94, 10.81 5.98, 10.59 6.95 C10.38 7.92, 9.36 7.95, 8.39 8.66 C7.41 9.37, 5.96 11.11, 4.73 11.22 C3.49 11.34, 1.62 10.05, 1 9.36 C0.38 8.68, 0.9 8.15, 1 7.1 C1.11 6.04, 1.15 4.01, 1.62 3.03 C2.09 2.06, 2.92 1.68, 3.85 1.25 C4.78 0.82, 6.46 0.36, 7.2 0.47 C7.94 0.57, 8.33 1.94, 8.3 1.9 M2.92 1.89 C3.72 1.49, 4.82 0.84, 5.9 0.85 C6.98 0.85, 8.69 1.01, 9.39 1.91 C10.09 2.81, 9.89 5.28, 10.11 6.26 C10.32 7.25, 11.16 7.01, 10.68 7.83 C10.2 8.65, 8.44 10.75, 7.23 11.19 C6.02 11.63, 4.61 11.19, 3.44 10.46 C2.26 9.74, 0.73 7.82, 0.17 6.85 C-0.4 5.87, -0.47 5.65, 0.05 4.61 C0.57 3.57, 2.71 1.16, 3.29 0.61 C3.87 0.06, 3.73 1.02, 3.51 1.32" stroke="#343a40" stroke-width="1" fill="none"></path></g><g stroke-linecap="round"><g transform="translate(255.88600749527768 57.943837987122606) rotate(373.1704129917167 0.6100205607734779 -2.825037808899964)" fill-rule="evenodd"><path d="M-1.46 -0.38 L-3.09 -2.24 L-3.26 -7.96 L-1.89 -5.61 L0.2 -4.06 L5.84 -6.63 L5.15 -3.53 L0.06 -0.74" stroke="none" stroke-width="0" fill="#ffcaca" fill-rule="evenodd"></path><path d="M1.03 0.81 C0.55 0.24, -1.76 -3.01, -2.36 -4.19 C-2.96 -5.37, -2.92 -6.03, -2.56 -6.27 C-2.2 -6.52, -0.74 -6.17, -0.23 -5.66 C0.29 -5.15, 0.24 -3.09, 0.55 -3.22 C0.86 -3.34, 1.18 -6.1, 1.64 -6.41 C2.11 -6.72, 3.12 -5.61, 3.35 -5.09 C3.58 -4.57, 3.24 -4.24, 3.01 -3.29 C2.79 -2.35, 2.29 -0.04, 2 0.58 C1.71 1.21, 1.52 0.36, 1.29 0.45 M0.11 0.19 C-0.57 -0.17, -2.63 -2.1, -3.26 -2.97 C-3.88 -3.84, -4.15 -4.79, -3.63 -5.03 C-3.11 -5.27, -0.6 -4.25, -0.15 -4.4 C0.3 -4.56, -1.42 -6, -0.94 -5.96 C-0.45 -5.92, 2.03 -4.15, 2.78 -4.16 C3.53 -4.16, 3.18 -6.08, 3.56 -5.99 C3.94 -5.9, 5.49 -4.57, 5.05 -3.61 C4.6 -2.66, 1.91 -0.89, 0.9 -0.25 C-0.11 0.38, -1.06 0.33, -1.01 0.21" stroke="#343a40" stroke-width="1" fill="none"></path></g></g><mask></mask><g stroke-linecap="round" transform="translate(257.48963804946607 50.41248010718289) rotate(16.687830541157332 0.48270170481146124 0.5265836779762196)"><path d="M1.23 -0.58 C1.2 -0.43, -0.04 0.1, 0.02 0.32 C0.08 0.54, 1.45 0.78, 1.59 0.73 C1.72 0.67, 1.11 -0.18, 0.83 -0.01 C0.56 0.17, 0.11 1.49, -0.05 1.78 C-0.21 2.07, -0.08 1.85, -0.14 1.72 C-0.19 1.59, -0.36 1.29, -0.39 0.99 C-0.42 0.68, -0.29 0.17, -0.31 -0.1 C-0.34 -0.37, -0.7 -0.73, -0.54 -0.63 C-0.38 -0.54, 0.51 0.41, 0.66 0.45 C0.8 0.49, 0.19 -0.4, 0.32 -0.37 M-0.9 -0.02 C-0.59 -0.24, 1.8 -0.5, 2.08 -0.25 C2.35 0, 1.02 1.44, 0.75 1.49 C0.47 1.55, 0.3 0.11, 0.42 0.07 C0.53 0.03, 1.24 1.27, 1.44 1.26 C1.63 1.25, 1.59 0.11, 1.57 0.01 C1.54 -0.08, 1.54 0.48, 1.29 0.67 C1.03 0.86, 0.5 1.09, 0.05 1.16 C-0.39 1.23, -1.59 1.15, -1.39 1.11 C-1.19 1.08, 1.04 0.98, 1.25 0.96 C1.46 0.95, -0.15 1.13, -0.11 1.04" stroke="none" stroke-width="0" fill="#868e96"></path><path d="M0.09 0.25 C0.26 0.38, 0.6 0.98, 0.67 0.89 C0.73 0.8, 0.55 -0.36, 0.48 -0.28 C0.42 -0.2, 0.38 1.16, 0.27 1.37 C0.15 1.59, -0.38 0.91, -0.2 1 C-0.02 1.09, 1.14 1.88, 1.35 1.92 C1.56 1.96, 1.23 1.32, 1.07 1.25 C0.91 1.17, 0.68 1.69, 0.39 1.48 C0.11 1.28, -0.6 0.16, -0.64 0.03 C-0.68 -0.11, 0.05 0.82, 0.14 0.67 C0.23 0.52, 0.01 -0.82, -0.1 -0.9 M-0.08 0.74 C-0.03 0.5, 0.54 -0.07, 0.62 0.01 C0.69 0.1, 0.1 1.28, 0.37 1.24 C0.65 1.21, 2.03 -0.26, 2.26 -0.18 C2.5 -0.1, 1.96 1.4, 1.8 1.73 C1.63 2.05, 1.56 1.92, 1.26 1.76 C0.95 1.6, 0.25 0.76, -0.01 0.76 C-0.28 0.76, -0.43 1.87, -0.33 1.77 C-0.22 1.66, 0.39 0.33, 0.63 0.13 C0.86 -0.06, 1.31 0.4, 1.1 0.6 C0.88 0.79, -0.49 1.57, -0.66 1.3" stroke="#343a40" stroke-width="1" fill="none"></path></g><g stroke-linecap="round" transform="translate(270.67260407476647 113.81605041858944) rotate(0 47.5 31)"><path d="M0 0 L95 0 L95 62 L0 62" stroke="none" stroke-width="0" fill="#ced4da"></path><path d="M0 0 C35.31 0, 70.62 0, 95 0 M95 0 C95 19.11, 95 38.23, 95 62 M95 62 C66.6 62, 38.2 62, 0 62 M0 62 C0 43.16, 0 24.32, 0 0" stroke="#495057" stroke-width="1.5" fill="none" stroke-dasharray="8 9"></path></g><g transform="translate(278.2326397803329 119.81605041858944) rotate(0 39.939964294433594 25)"><text x="39.939964294433594" y="0" font-family="Virgil, Segoe UI Emoji" font-size="20px" fill="#495057" text-anchor="middle" style="white-space: pre;" direction="ltr" dominant-baseline="text-before-edge">TCP</text><text x="39.939964294433594" y="25" font-family="Virgil, Segoe UI Emoji" font-size="20px" fill="#495057" text-anchor="middle" style="white-space: pre;" direction="ltr" dominant-baseline="text-before-edge">Request</text></g><g stroke-linecap="round" transform="translate(591.7918818220842 110.00511947354033) rotate(0 95.5 32.5)"><path d="M0 0 L191 0 L191 65 L0 65" stroke="none" stroke-width="0" fill="#fa5252"></path><path d="M0 0 C64.3 0, 128.6 0, 191 0 M191 0 C191 23.17, 191 46.35, 191 65 M191 65 C127.6 65, 64.2 65, 0 65 M0 65 C0 41.12, 0 17.25, 0 0" stroke="#a61e4d" stroke-width="1.5" fill="none" stroke-dasharray="8 9"></path></g><g transform="translate(607.041950486635 130.00511947354033) rotate(0 80.24993133544922 12.5)"><text x="80.24993133544922" y="0" font-family="Virgil, Segoe UI Emoji" font-size="20px" fill="#000000" text-anchor="middle" style="white-space: pre;" direction="ltr" dominant-baseline="text-before-edge">RESP deserialze</text></g><g stroke-linecap="round"><g transform="translate(367.13294593962064 148.00373490265412) rotate(0 110.9238647319163 -1.382461574748504)"><path d="M0 0 C45.46 -0.57, 90.93 -1.13, 221.85 -2.76" stroke="#000000" stroke-width="1.5" fill="none" stroke-dasharray="8 9"></path></g><g transform="translate(367.13294593962064 148.00373490265412) rotate(0 110.9238647319163 -1.382461574748504)"><path d="M193.79 7.85 C199.54 5.67, 205.29 3.5, 221.85 -2.76" stroke="#000000" stroke-width="1.5" fill="none"></path></g><g transform="translate(367.13294593962064 148.00373490265412) rotate(0 110.9238647319163 -1.382461574748504)"><path d="M193.53 -12.67 C199.33 -10.64, 205.14 -8.61, 221.85 -2.76" stroke="#000000" stroke-width="1.5" fill="none"></path></g></g><mask></mask><g stroke-linecap="round" transform="translate(602.9391703026363 303.92471451649936) rotate(0 91.74326111161929 32.973246139496325)"><path d="M0 0 L183.49 0 L183.49 65.95 L0 65.95" stroke="none" stroke-width="0" fill="#ced4da"></path><path d="M0 0 C54.4 0, 108.8 0, 183.49 0 M183.49 0 C183.49 16.91, 183.49 33.82, 183.49 65.95 M183.49 65.95 C142.22 65.95, 100.96 65.95, 0 65.95 M0 65.95 C0 41.39, 0 16.84, 0 0" stroke="#000000" stroke-width="1.5" fill="none" stroke-dasharray="8 9"></path></g><g transform="translate(642.582471087107 311.89796065599563) rotate(0 52.09996032714844 25)"><text x="52.09996032714844" y="0" font-family="Virgil, Segoe UI Emoji" font-size="20px" fill="#000000" text-anchor="middle" style="white-space: pre;" direction="ltr" dominant-baseline="text-before-edge">Commands </text><text x="52.09996032714844" y="25" font-family="Virgil, Segoe UI Emoji" font-size="20px" fill="#000000" text-anchor="middle" style="white-space: pre;" direction="ltr" dominant-baseline="text-before-edge">Handler</text></g><g stroke-linecap="round"><g transform="translate(688.9210133383494 183.71909316782813) rotate(0 0.816285622195096 58.572785114844805)"><path d="M0 0 C0.52 37, 1.03 74, 1.63 117.15" stroke="#000000" stroke-width="1.5" fill="none" stroke-dasharray="8 9"></path></g><g transform="translate(688.9210133383494 183.71909316782813) rotate(0 0.816285622195096 58.572785114844805)"><path d="M-9.02 89.1 C-5.66 97.96, -2.29 106.82, 1.63 117.15" stroke="#000000" stroke-width="1.5" fill="none"></path></g><g transform="translate(688.9210133383494 183.71909316782813) rotate(0 0.816285622195096 58.572785114844805)"><path d="M11.5 88.81 C8.38 97.76, 5.27 106.71, 1.63 117.15" stroke="#000000" stroke-width="1.5" fill="none"></path></g></g><mask></mask><g stroke-linecap="round" transform="translate(214.3062254907627 311.5339532442768) rotate(0 69.5 31)"><path d="M0 0 L139 0 L139 62 L0 62" stroke="none" stroke-width="0" fill="#ced4da"></path><path d="M0 0 C55.46 0, 110.92 0, 139 0 M139 0 C139 20.93, 139 41.87, 139 62 M139 62 C104.72 62, 70.45 62, 0 62 M0 62 C0 49, 0 35.99, 0 0" stroke="#495057" stroke-width="1.5" fill="none" stroke-dasharray="8 9"></path></g><g transform="translate(240.08627004642676 330.0339532442768) rotate(0 43.71995544433594 12.5)"><text x="43.71995544433594" y="0" font-family="Virgil, Segoe UI Emoji" font-size="20px" fill="#495057" text-anchor="middle" style="white-space: pre;" direction="ltr" dominant-baseline="text-before-edge">Response</text></g><g stroke-linecap="round" transform="translate(434.8376645060921 307.2129686189655) rotate(0 61 30)"><path d="M0 0 L122 0 L122 60 L0 60" stroke="none" stroke-width="0" fill="#fa5252"></path><path d="M0 0 C36.87 0, 73.74 0, 122 0 M122 0 C122 18.85, 122 37.7, 122 60 M122 60 C94.35 60, 66.7 60, 0 60 M0 60 C0 41.79, 0 23.58, 0 0" stroke="#a61e4d" stroke-width="1.5" fill="none" stroke-dasharray="8 9"></path></g><g transform="translate(457.9577053996468 312.2129686189655) rotate(0 37.87995910644531 25)"><text x="37.87995910644531" y="0" font-family="Virgil, Segoe UI Emoji" font-size="20px" fill="#000000" text-anchor="middle" style="white-space: pre;" direction="ltr" dominant-baseline="text-before-edge">RESP </text><text x="37.87995910644531" y="25" font-family="Virgil, Segoe UI Emoji" font-size="20px" fill="#000000" text-anchor="middle" style="white-space: pre;" direction="ltr" dominant-baseline="text-before-edge">serialze</text></g><g stroke-linecap="round"><g transform="translate(595.4175407455298 343.32124948310985) rotate(0 -15.847120199179813 0.34610831629959193)"><path d="M0 0 C-11.17 0.24, -22.34 0.49, -31.69 0.69" stroke="#000000" stroke-width="1.5" fill="none" stroke-dasharray="8 9"></path></g><g transform="translate(595.4175407455298 343.32124948310985) rotate(0 -15.847120199179813 0.34610831629959193)"><path d="M-16.92 -5.05 C-22.13 -3.03, -27.33 -1, -31.69 0.69" stroke="#000000" stroke-width="1.5" fill="none"></path></g><g transform="translate(595.4175407455298 343.32124948310985) rotate(0 -15.847120199179813 0.34610831629959193)"><path d="M-16.68 5.79 C-21.97 3.99, -27.26 2.2, -31.69 0.69" stroke="#000000" stroke-width="1.5" fill="none"></path></g></g><mask></mask><g stroke-linecap="round"><g transform="translate(429.9237605021631 341.31444401803975) rotate(0 -37.566311149140006 1.91405036235426)"><path d="M0 0 C-28.89 1.47, -57.78 2.94, -75.13 3.83" stroke="#000000" stroke-width="1.5" fill="none" stroke-dasharray="8 9"></path></g><g transform="translate(429.9237605021631 341.31444401803975) rotate(0 -37.566311149140006 1.91405036235426)"><path d="M-47.5 -7.85 C-58.13 -3.36, -68.75 1.13, -75.13 3.83" stroke="#000000" stroke-width="1.5" fill="none"></path></g><g transform="translate(429.9237605021631 341.31444401803975) rotate(0 -37.566311149140006 1.91405036235426)"><path d="M-46.46 12.64 C-57.48 9.25, -68.51 5.86, -75.13 3.83" stroke="#000000" stroke-width="1.5" fill="none"></path></g></g><mask></mask><g stroke-linecap="round" transform="translate(10 115.83843825461764) rotate(0 83.5 27.5)"><path d="M0 0 L167 0 L167 55 L0 55" stroke="none" stroke-width="0" fill="#ced4da"></path><path d="M0 0 C49.35 0, 98.7 0, 167 0 M167 0 C167 21.61, 167 43.22, 167 55 M167 55 C108.28 55, 49.56 55, 0 55 M0 55 C0 36.29, 0 17.57, 0 0" stroke="#495057" stroke-width="1.5" fill="none" stroke-dasharray="8 9"></path></g><g transform="translate(66.45002746582031 130.83843825461764) rotate(0 27.049972534179688 12.5)"><text x="27.049972534179688" y="0" font-family="Virgil, Segoe UI Emoji" font-size="20px" fill="#495057" text-anchor="middle" style="white-space: pre;" direction="ltr" dominant-baseline="text-before-edge">Client</text></g><g stroke-linecap="round"><g transform="translate(186.85589139390595 143.8227920356664) rotate(0 39.70147377073408 -0.15298061354366155)"><path d="M0 0 C28.26 -0.11, 56.51 -0.22, 79.4 -0.31" stroke="#000000" stroke-width="1.5" fill="none" stroke-dasharray="8 9"></path></g><g transform="translate(186.85589139390595 143.8227920356664) rotate(0 39.70147377073408 -0.15298061354366155)"><path d="M51.25 10.06 C61.27 6.37, 71.29 2.68, 79.4 -0.31" stroke="#000000" stroke-width="1.5" fill="none"></path></g><g transform="translate(186.85589139390595 143.8227920356664) rotate(0 39.70147377073408 -0.15298061354366155)"><path d="M51.17 -10.46 C61.22 -6.85, 71.26 -3.23, 79.4 -0.31" stroke="#000000" stroke-width="1.5" fill="none"></path></g></g><mask></mask><g stroke-linecap="round"><g transform="translate(209.71662485114257 345.5820510385748) rotate(0 -61.70754451309858 -85.25559413963748)"><path d="M0 0 C-26.54 -0.05, -53.07 -0.11, -123.42 -0.25 M-123.42 -0.25 C-123.21 -39.42, -123.01 -78.59, -122.53 -170.51" stroke="#000000" stroke-width="1.5" fill="none" stroke-dasharray="8 9"></path></g><g transform="translate(209.71662485114257 345.5820510385748) rotate(0 -61.70754451309858 -85.25559413963748)"><path d="M-112.42 -142.27 C-114.59 -148.34, -116.77 -154.41, -122.53 -170.51" stroke="#000000" stroke-width="1.5" fill="none"></path></g><g transform="translate(209.71662485114257 345.5820510385748) rotate(0 -61.70754451309858 -85.25559413963748)"><path d="M-132.94 -142.37 C-130.7 -148.42, -128.46 -154.47, -122.53 -170.51" stroke="#000000" stroke-width="1.5" fill="none"></path></g></g><mask></mask></svg>